<svg width="32" height="32" viewBox="0 0 32 32" fill="none" xmlns="http://www.w3.org/2000/svg">
    <rect width="32" height="32" rx="16" fill="#1E1E1E"/>
    <path d="M8.5577 21.2294C8.69108 21.0959 8.87449 21.0181 9.06901 21.0181H26.7091C27.0315 21.0181 27.1926 21.4073 26.9648 21.6353L23.4801 25.122C23.3467 25.2555 23.1633 25.3333 22.9688 25.3333H5.32868C5.00633 25.3333 4.84516 24.9441 5.07303 24.7161L8.5577 21.2294Z" fill="url(#paint0_linear_32_653)"/>
    <path d="M8.5577 8.21131C8.69664 8.07785 8.88005 8 9.06901 8H26.7091C27.0315 8 27.1926 8.38926 26.9648 8.61726L23.4801 12.104C23.3467 12.2374 23.1633 12.3153 22.9688 12.3153H5.32868C5.00633 12.3153 4.84516 11.926 5.07303 11.698L8.5577 8.21131Z" fill="url(#paint1_linear_32_653)"/>
    <path d="M23.4801 14.6786C23.3467 14.5451 23.1633 14.4673 22.9688 14.4673H5.32868C5.00633 14.4673 4.84516 14.8565 5.07303 15.0845L8.5577 18.5712C8.69108 18.7047 8.87449 18.7826 9.06901 18.7826H26.7091C27.0315 18.7826 27.1926 18.3933 26.9648 18.1653L23.4801 14.6786Z" fill="url(#paint2_linear_32_653)"/>
    <defs>
        <linearGradient id="paint0_linear_32_653" x1="25.024" y1="5.91711" x2="12.8045" y2="29.3088" gradientUnits="userSpaceOnUse">
            <stop stop-color="#00FFA3"/>
            <stop offset="1" stop-color="#DC1FFF"/>
        </linearGradient>
        <linearGradient id="paint1_linear_32_653" x1="19.6858" y1="3.12856" x2="7.46634" y2="26.5202" gradientUnits="userSpaceOnUse">
            <stop stop-color="#00FFA3"/>
            <stop offset="1" stop-color="#DC1FFF"/>
        </linearGradient>
        <linearGradient id="paint2_linear_32_653" x1="22.3379" y1="4.51392" x2="10.1184" y2="27.9056" gradientUnits="userSpaceOnUse">
            <stop stop-color="#00FFA3"/>
            <stop offset="1" stop-color="#DC1FFF"/>
        </linearGradient>
    </defs>
</svg>
