<svg width="142" height="182" viewBox="0 0 142 182" fill="none" xmlns="http://www.w3.org/2000/svg">
<path d="M20.4661 159.356C23.3343 156.225 30.6962 152.809 35.4764 151.766C58.358 151.797 103.237 152.298 108.997 154.138C119.992 157.649 123.72 161.918 123.147 163.816C122.956 164.86 122.382 167.232 121.617 168.371C120.661 169.794 119.514 170.932 115.116 172.735C108.041 175.635 99.341 178.618 87.0079 180.231C80.5284 181.079 61.4812 181.655 46.6623 179.567C31.8434 177.48 20.4661 171.027 19.1279 169.794C17.8333 168.601 17.8412 165.365 17.6719 164.812C17.6658 164.796 17.6599 164.781 17.6542 164.765C17.1775 163.462 18.2396 161.787 20.4661 159.356Z" fill="#9DA990"/>
<path d="M123.147 163.816C122.573 165.714 117.792 169.13 108.614 172.071C99.436 175.013 75.3434 178.523 58.4212 177.48C41.499 176.436 24.004 170.268 18.4586 165.809C18.0567 165.485 17.7915 165.141 17.6542 164.765M123.147 163.816C123.72 161.918 119.992 157.649 108.997 154.138C103.237 152.298 58.358 151.797 35.4764 151.766C30.6962 152.809 23.3343 156.225 20.4661 159.356C18.2396 161.787 17.1775 163.462 17.6542 164.765M123.147 163.816C122.956 164.86 122.382 167.232 121.617 168.371C120.661 169.794 119.514 170.932 115.116 172.735C108.041 175.635 99.341 178.618 87.0079 180.231C80.5284 181.079 61.4812 181.655 46.6623 179.567C31.8434 177.48 20.4661 171.027 19.1279 169.794C17.7897 168.56 17.8432 165.144 17.6542 164.765" stroke="#1E1E1E" stroke-width="0.7" stroke-linecap="round" stroke-linejoin="round"/>
<path d="M32.5929 155.038C32.3067 153.135 36.2452 152.448 38.6993 152.089C58.8295 149.139 76.193 149.33 84.6839 150.376C98.7051 152.105 106.612 153.231 106.054 156.941C105.768 158.844 92.1254 167.598 67.3204 166.742C50.9183 166.175 33.2798 159.606 32.5929 155.038Z" fill="#829173" stroke="#1E1E1E" stroke-width="0.7" stroke-linecap="round" stroke-linejoin="round"/>
<path d="M74.7623 137.462C92.1735 138.798 101.165 140.802 101.069 143.665C101.025 144.994 97.5174 146.282 92.9389 147.318L88.4426 155.116C87.9323 157.184 86.9884 161.452 85.3812 161.987C83.3723 162.655 73.71 163.999 65.1957 163.227C60.9864 162.845 53.2375 161.987 49.4108 160.364L50.9415 154.353L46.9891 146.719C42.242 145.68 37.6025 144.368 36.4953 142.711C34.1993 139.276 57.3511 136.127 74.7623 137.462Z" fill="#9DA990"/>
<path d="M50.9415 154.353C53.5245 155.116 62.4597 156.566 67.97 156.643C73.4804 156.719 83.8825 155.784 88.4426 155.116M50.9415 154.353L49.4108 160.364C53.2375 161.987 60.9864 162.845 65.1957 163.227C73.71 163.999 83.3723 162.655 85.3812 161.987C86.9884 161.452 87.9323 157.184 88.4426 155.116M50.9415 154.353L46.9891 146.719M88.4426 155.116L92.9389 147.318M46.9891 146.719C42.242 145.68 37.6025 144.368 36.4953 142.711C34.1993 139.276 57.3511 136.127 74.7623 137.462C92.1735 138.798 101.165 140.802 101.069 143.665C101.025 144.994 97.5174 146.282 92.9389 147.318M46.9891 146.719C50.1167 147.403 53.2911 147.969 55.5329 148.436C64.9081 149.2 69.8254 149.887 76.4837 149.581C80.9431 149.377 87.6543 148.515 92.9389 147.318" stroke="#1E1E1E" stroke-width="0.7" stroke-linecap="round" stroke-linejoin="round"/>
<path d="M76.4837 149.603C69.8254 149.909 64.9081 149.221 55.5329 148.456C53.2911 147.988 50.1167 147.421 46.9891 146.735C42.242 145.695 37.6025 144.38 36.4953 142.721C34.1993 139.279 57.3511 136.125 74.7623 137.463C92.1735 138.801 101.165 140.809 101.069 143.676C101.025 145.008 97.5174 146.298 92.9389 147.336C87.6543 148.535 80.9431 149.398 76.4837 149.603Z" fill="#829073" stroke="#1E1E1E" stroke-width="0.7" stroke-linecap="round" stroke-linejoin="round"/>
<path d="M97.198 163.649C91.9589 165.358 88.5298 166.877 73.4796 168.395C71.6696 168.965 77.7658 171.072 79.2899 171.528C81.195 172.097 79.4805 172.667 78.528 173.711C77.5754 174.755 80.7189 175.989 83.005 175.989C85.4872 175.989 97.1904 174.526 103.389 172.761C114.058 169.724 120.536 166.497 121.488 163.649C122.25 161.371 113.106 156.531 107.2 155.107C108.248 159.093 104.176 161.374 97.198 163.649Z" fill="#BCC9AF"/>
<path d="M38.3305 162.036C33.1469 159.697 31.0593 157.1 31.0911 156.246C26.4236 156.531 20.1929 163.103 21.4697 165.073C24.4222 169.629 38.9967 173.331 42.8069 173.711C45.8551 174.014 50.4273 169.155 52.9995 166.212C49.2843 165.738 43.3784 164.314 38.3305 162.036Z" fill="#BCC9AF"/>
<path d="M97.198 163.649C91.9589 165.358 88.5298 166.877 73.4796 168.395C71.6696 168.965 77.7658 171.072 79.2899 171.528C81.195 172.097 79.4805 172.667 78.528 173.711C77.5754 174.755 80.7189 175.989 83.005 175.989C85.4872 175.989 97.1904 174.526 103.389 172.761C114.058 169.724 120.536 166.497 121.488 163.649C122.25 161.371 113.106 156.531 107.2 155.107C108.248 159.093 104.176 161.374 97.198 163.649Z" stroke="#1E1E1E" stroke-width="0.7" stroke-linecap="round" stroke-linejoin="round"/>
<path d="M38.3305 162.036C33.1469 159.697 31.0593 157.1 31.0911 156.246C26.4236 156.531 20.1929 163.103 21.4697 165.073C24.4222 169.629 38.9967 173.331 42.8069 173.711C45.8551 174.014 50.4273 169.155 52.9995 166.212C49.2843 165.738 43.3784 164.314 38.3305 162.036Z" stroke="#1E1E1E" stroke-width="0.7" stroke-linecap="round" stroke-linejoin="round"/>
<path d="M103.121 135.409C91.7932 140.934 76.9969 143.327 62.7909 142.373C37.703 140.688 25.7981 126.574 15.8825 116.423C3.48797 103.734 0.276676 83.3818 0.913697 66.8118C1.86733 42.0063 15.3525 25.1095 30.6605 14.1478C51.4452 -0.73548 72.8019 -2.45279 96.7327 6.32454C107.329 10.2109 122.637 21.244 131.056 34.9463C139.24 48.2663 141.162 64.4422 141.162 75.4937C141.162 97.9141 126.003 124.246 103.121 135.409Z" fill="#6CBAA2" stroke="#1E1E1E" stroke-width="0.7" stroke-linecap="round" stroke-linejoin="round"/>
<path d="M102.261 133.296C91.2702 138.675 76.9143 141.005 63.1311 140.076C38.7899 138.436 27.2393 124.696 17.6188 114.815C5.59317 102.462 2.47745 82.6507 3.09551 66.5206C4.02076 42.3737 17.1045 25.9254 31.957 15.2548C52.1231 0.766649 72.8441 -0.90507 96.0628 7.63923C106.343 11.4224 121.196 22.1626 129.365 35.5011C137.305 48.4675 139.17 64.2139 139.17 74.9721C139.17 96.7972 124.462 122.43 102.261 133.296Z" fill="#C9A584" stroke="#1E1E1E" stroke-width="0.7" stroke-linecap="round" stroke-linejoin="round"/>
<path d="M81.8599 148.34L84.6465 145.662C87.0167 145.63 93.1792 144.38 98.8677 139.637C105.978 133.707 116.068 119.267 117.605 118.501C119.143 117.736 124.716 116.302 125.677 116.78C126.638 117.258 129.809 126.152 128.175 128.734C126.542 131.317 120.296 133.325 118.662 133.134C117.821 133.035 116.403 132.218 115.107 131.401C113.409 133.349 109.803 137.934 108.957 140.689C107.9 144.132 107.228 147.383 107.708 148.34C107.964 148.595 108.323 149.678 108.092 150.444C107.804 151.4 105.402 154.747 103.192 156.182C101.424 157.329 90.9884 161.346 84.6465 162.207C84.6465 157.234 84.6465 154.365 81.8599 148.34Z" fill="#D0C7A3"/>
<path d="M84.6465 145.662L81.8599 148.34C84.6465 154.365 84.6465 157.234 84.6465 162.207M84.6465 145.662C87.0167 145.63 93.1792 144.38 98.8677 139.637C105.978 133.707 116.068 119.267 117.605 118.501M84.6465 145.662C89.1627 149.392 91.1806 152.452 92.4297 156.947M117.605 118.501C119.143 117.736 124.716 116.302 125.677 116.78C126.638 117.258 129.809 126.152 128.175 128.734C126.542 131.317 120.296 133.325 118.662 133.134M117.605 118.501C118.15 119.522 119.277 122.116 119.431 124.335C119.585 126.554 118.983 131.125 118.662 133.134M118.662 133.134C117.821 133.035 116.403 132.218 115.107 131.401M92.4297 156.947C105.69 146.905 107.228 138.394 113.185 130.169C113.71 130.498 114.39 130.95 115.107 131.401M92.4297 156.947C91.191 157.885 87.7213 160.772 84.6465 162.207M92.4297 156.947C93.8391 156.66 97.3303 155.799 100.021 154.651C103.384 153.217 108.188 149.296 107.708 148.34M84.6465 162.207C90.9884 161.346 101.424 157.329 103.192 156.182C105.402 154.747 107.804 151.4 108.092 150.444C108.323 149.678 107.964 148.595 107.708 148.34M115.107 131.401C113.409 133.349 109.803 137.934 108.957 140.689C107.9 144.132 107.228 147.383 107.708 148.34" stroke="#1E1E1E" stroke-width="0.7" stroke-linecap="round" stroke-linejoin="round"/>
<path d="M55.5469 147.113L53.0391 144.533C50.906 144.502 45.3599 143.298 40.2405 138.727C33.8412 133.013 25.8015 120.049 24.645 118.992C23.4969 117.943 18.9047 116.226 17.0869 116.798C14.687 117.554 11.8856 126.708 13.3557 129.196C14.8258 131.685 20.0177 133.386 21.4878 133.202C22.245 133.107 23.8796 132.153 25.1233 130.531C26.6511 132.409 30.0609 137.207 31.1604 139.74C32.5857 143.025 33.4964 146.49 33.0641 147.412C32.8334 147.657 32.5695 149.345 32.777 150.082C33.0365 151.003 34.3601 153.288 36.349 154.671C41.4832 158.239 46.8408 160.191 53.0391 160.954C52.007 154.671 53.0391 152.92 55.5469 147.113Z" fill="#D0C7A3"/>
<path d="M53.039 144.533L55.5469 147.113C53.039 152.92 52.007 154.671 53.039 160.954M53.039 144.533C50.906 144.502 45.3599 143.298 40.2405 138.727C33.8412 133.013 25.8015 120.049 24.645 118.992M53.039 144.533C48.9746 148.127 47.965 151.663 46.8408 155.995M24.645 118.992C23.4969 117.943 18.9047 116.226 17.0869 116.798C14.687 117.554 11.8856 126.708 13.3557 129.196C14.8258 131.685 20.0177 133.386 21.4878 133.202M24.645 118.992C23.7839 119.755 22.7209 121.955 21.7345 124.809C21.0094 126.907 20.3397 130.79 21.4878 133.202M21.4878 133.202C22.245 133.107 23.8796 132.153 25.1233 130.531M46.8408 155.995C35.9342 145.981 32.777 136.921 26.5584 128.719C26.0861 129.037 25.9844 129.409 25.1233 130.531M46.8408 155.995C47.9556 156.899 50.2718 159.571 53.039 160.954M46.8408 155.995C45.5724 155.718 41.6241 154.302 39.2028 153.196C36.1761 151.814 32.6317 148.333 33.0641 147.412M53.039 160.954C46.8408 160.191 41.4832 158.239 36.349 154.671C34.3601 153.288 33.0365 151.003 32.777 150.082C32.5695 149.345 32.8334 147.657 33.0641 147.412M25.1233 130.531C26.6511 132.409 30.0609 137.207 31.1604 139.74C32.5857 143.025 33.4964 146.49 33.0641 147.412" stroke="#1E1E1E" stroke-width="0.7" stroke-linecap="round" stroke-linejoin="round"/>
<g filter="url(#filter0_f_313_498)">
<ellipse cx="69.4995" cy="123.5" rx="31.5" ry="10.5" fill="#9F7955"/>
</g>
<path d="M70.8725 123.612C67.8294 123.898 62.4328 124.805 63.146 123.135C63.8592 121.465 67.4393 120.753 70.8724 120.63C74.6975 120.493 77.2479 120.683 79.0746 120.998C80.427 121.231 81.3827 121.533 82.1653 121.823C84.424 122.658 84.5426 123.612 83.2351 123.612C82.7961 123.612 81.687 123.571 80.2633 123.531C77.4469 123.452 73.3991 123.374 70.8725 123.612Z" fill="#E8D5AF"/>
<path d="M110.575 113.354C112.239 112.877 111.764 114.786 110.575 116.098C110.282 116.421 109.707 117.022 108.931 117.768C106.558 120.045 102.302 123.666 98.4504 124.805C97.5933 125.058 96.8446 125.239 96.1919 125.362C92.9521 125.972 92.0757 125.143 92.0314 124.566C91.9217 123.134 96.3946 121.315 99.4014 119.993C99.6503 119.884 99.8892 119.778 100.115 119.676C102.056 118.796 104.394 117.221 106.415 115.857L106.442 115.839C108.244 114.623 109.792 113.579 110.575 113.354Z" fill="#E8D5AF"/>
<path d="M14.5325 81.1754C14.8867 83.1891 15.1155 84.4902 13.3396 84.3714C12.024 84.2834 10.8372 81.3383 10.4009 77.6921C10.2458 76.3967 10.1855 75.0127 10.2479 73.6369C10.3675 70.9958 10.9015 68.468 11.518 66.5998C11.8814 65.4983 12.2736 64.626 12.6263 64.0951C13.5773 62.6639 14.2457 63.3514 14.0527 65.2879C14.01 65.7172 13.9792 66.2426 13.9587 66.8384C13.842 70.2357 14.0612 75.9217 14.3121 79.1234C14.3839 80.0405 14.4584 80.7537 14.5282 81.151L14.5325 81.1754Z" fill="#E8D5AF"/>
<path d="M69.8016 130.052C61.6392 130.41 45.4332 127.667 31.8821 117.768C25.3715 113.011 21.0708 107.772 18.3309 103.109C14.6366 96.8203 13.78 91.5782 14.1705 89.9771C15.1456 85.9787 18.8401 90.6682 23.0873 99.5189C23.401 100.173 23.7178 100.849 24.0367 101.547C28.2409 110.741 38.4711 118.705 47.2163 123.97C55.5372 128.979 65.443 129.257 69.8016 130.052Z" fill="#E8D5AF"/>
<path d="M129.236 65.5264C129.118 68.5082 125.789 70.8936 124.601 70.4165C123.412 69.9395 122.176 63.2841 122.461 61.4712C122.612 60.5096 122.695 59.8651 123.174 58.7279C123.887 56.7003 124.73 55.2365 125.551 55.0305C126.24 54.8579 127.204 56.5722 128.005 58.7279C128.547 60.1858 128.862 61.8457 129.118 63.2602C129.268 64.0905 129.259 64.9555 129.236 65.5264Z" fill="#E8D5AF"/>
<path d="M123.412 49.544C123.986 52.6529 122.104 57.1773 120.44 57.5352C118.776 57.893 117.659 55.0543 116.993 53.2414C116.834 52.8097 116.581 52.1485 116.256 51.333C114.873 47.8677 112.193 41.6151 109.98 38.3324C108.862 36.6754 106.591 33.1279 104.155 30.2219C102.493 28.239 100.787 26.4493 99.5338 25.0932C98.4539 23.9248 97.7094 23.0784 97.6171 22.7078C97.4662 22.1021 98.9066 22.1317 101.305 23.5427C102.146 24.0377 103.105 24.7029 104.155 25.5703C106.437 27.456 113.366 33.1258 118.3 39.5474C120.814 42.8181 122.81 46.2838 123.412 49.544Z" fill="#E8D5AF"/>
<path d="M70.8725 123.612C67.8294 123.898 62.4328 124.805 63.146 123.135C63.8592 121.465 67.4393 120.753 70.8724 120.63M70.8725 123.612C69.6838 123.612 65.7612 123.97 66.1178 122.658C66.4744 121.345 68.3764 120.831 70.8724 120.63M70.8725 123.612C73.3991 123.374 77.4469 123.452 80.2633 123.531M70.8724 120.63C74.6975 120.493 77.2479 120.683 79.0746 120.998M79.0746 120.998C80.427 121.231 81.3827 121.533 82.1653 121.823C84.424 122.658 84.5427 123.612 83.2351 123.612C82.7961 123.612 81.687 123.571 80.2633 123.531M79.0746 120.998C81.9275 121.737 82.403 122.419 82.2841 122.896C82.1688 123.359 80.8973 123.439 80.2633 123.531M99.4014 119.993C99.6503 119.884 99.8892 119.778 100.115 119.676C102.056 118.796 104.394 117.221 106.415 115.857M99.4014 119.993C96.3946 121.315 91.9217 123.134 92.0314 124.566C92.0757 125.143 92.9521 125.972 96.1919 125.362M99.4014 119.993C99.1636 120.098 94.0522 122.515 94.0522 124.089C94.0522 125.581 95.6372 125.335 96.1919 125.362M96.1919 125.362C96.8446 125.239 97.5933 125.058 98.4504 124.805C102.302 123.666 106.558 120.045 108.931 117.767M106.415 115.857C108.229 114.633 109.788 113.58 110.575 113.354C112.239 112.877 111.764 114.786 110.575 116.098C110.282 116.421 109.707 117.022 108.931 117.767M106.415 115.857C107.207 115.54 108.837 115.069 109.268 115.501C109.862 116.098 109.386 117.052 108.931 117.767M10.4009 77.6921C10.2458 76.3967 10.1855 75.0127 10.2479 73.6369C10.3675 70.9958 10.9015 68.468 11.518 66.5998M10.4009 77.6921C10.8372 81.3383 12.024 84.2834 13.3396 84.3714C15.1227 84.4906 14.8848 83.1787 14.5282 81.151C14.4584 80.7537 14.3839 80.0405 14.3121 79.1234M10.4009 77.6921C10.8253 79.0041 11.8882 81.652 12.744 81.7474C13.9327 81.8799 14.146 80.0378 14.3121 79.1234M14.3121 79.1234C14.0612 75.9217 13.842 70.2357 13.9587 66.8384M11.518 66.5998C11.8814 65.4983 12.2736 64.626 12.6263 64.0951C13.5773 62.6639 14.2457 63.3514 14.0527 65.2879C14.01 65.7172 13.9792 66.2426 13.9587 66.8384M11.518 66.5998C11.887 65.924 12.8944 65.1171 13.3384 65.2879C13.9587 65.5264 13.8312 66.3216 13.9587 66.8384M23.0873 99.5189C18.8401 90.6682 15.1456 85.9787 14.1705 89.9771C13.78 91.5782 14.6366 96.8203 18.3309 103.109M23.0873 99.5189C23.401 100.173 23.7178 100.849 24.0367 101.547C28.2409 110.741 38.4711 118.705 47.2163 123.97C55.5372 128.979 65.443 129.257 69.8016 130.052C61.6392 130.41 45.4332 127.667 31.8821 117.767C25.3715 113.011 21.0708 107.772 18.3309 103.109M23.0873 99.5189C21.4827 96.4178 17.548 90.5019 16.0724 92.124C14.5968 93.7461 17.0821 100.163 18.3309 103.109M122.461 61.4712C122.176 63.2841 123.412 69.9395 124.601 70.4165C125.789 70.8936 129.118 68.5082 129.236 65.5264C129.259 64.9555 129.268 64.0905 129.118 63.2602M122.461 61.4712C123.293 59.4435 124.07 58.3315 125.551 58.7279C127.335 59.205 128.512 61.6699 129.118 63.2602M122.461 61.4712C122.612 60.5096 122.695 59.8651 123.174 58.7279M129.118 63.2602C128.862 61.8457 128.547 60.1858 128.005 58.7279M128.005 58.7279C127.204 56.5722 126.24 54.8579 125.551 55.0305C124.73 55.2365 123.887 56.7003 123.174 58.7279M128.005 58.7279C127.465 58.1713 126.621 57.4159 125.551 57.1774C124.895 57.031 124.006 57.5352 123.174 58.7279M118.3 39.5474C120.814 42.8181 122.81 46.2838 123.412 49.544C123.986 52.6529 122.104 57.1773 120.44 57.5352C118.776 57.893 117.659 55.0543 116.993 53.2414C116.834 52.8097 116.581 52.1485 116.256 51.333M118.3 39.5474C113.366 33.1258 106.437 27.456 104.155 25.5703C103.105 24.7029 102.146 24.0377 101.305 23.5427M118.3 39.5474C122.209 45.8465 122.104 52.5496 120.202 53.5992C118.3 54.6488 116.937 52.2872 116.256 51.333M116.256 51.333C114.873 47.8677 112.193 41.6151 109.98 38.3324C108.862 36.6754 106.591 33.1279 104.155 30.2219C102.493 28.239 100.787 26.4493 99.5338 25.0932M101.305 23.5427C98.9066 22.1317 97.4662 22.1021 97.6171 22.7078C97.7094 23.0784 98.4539 23.9248 99.5338 25.0932M101.305 23.5427C100.551 23.3041 99.2813 22.827 98.8058 23.5427C98.6156 23.8289 99.2119 24.5764 99.5338 25.0932" stroke="#1E1E1E" stroke-width="0.7" stroke-linecap="round" stroke-linejoin="round"/>
<path d="M69.8531 76.5761L69.4995 76.2225L69.146 76.5761L50.1422 95.5799C49.5341 96.188 48.7607 96.5 47.7809 96.5C46.8011 96.5 46.0277 96.188 45.4196 95.5799C44.8115 94.9718 44.4995 94.1984 44.4995 93.2186C44.4995 92.2388 44.8115 91.4654 45.4196 90.8574L64.4234 71.8536L64.777 71.5L64.4234 71.1464L45.4196 52.1426C44.8115 51.5345 44.4995 50.7612 44.4995 49.7814C44.4995 48.8016 44.8115 48.0282 45.4196 47.4201C46.0277 46.812 46.8011 46.5 47.7809 46.5C48.7607 46.5 49.5341 46.812 50.1422 47.4201L69.146 66.4239L69.4995 66.7775L69.8531 66.4239L88.8569 47.4201C89.465 46.812 90.2383 46.5 91.2181 46.5C92.1979 46.5 92.9713 46.812 93.5794 47.4201C94.1875 48.0282 94.4995 48.8016 94.4995 49.7814C94.4995 50.7612 94.1875 51.5345 93.5794 52.1426L74.5756 71.1464L74.2221 71.5L74.5756 71.8536L93.5794 90.8574C94.1875 91.4654 94.4995 92.2388 94.4995 93.2186C94.4995 94.1984 94.1875 94.9718 93.5794 95.5799C92.9713 96.188 92.1979 96.5 91.2181 96.5C90.2383 96.5 89.465 96.188 88.8569 95.5799L69.8531 76.5761Z" fill="#802525" stroke="#1E1E1E"/>
<defs>
<filter id="filter0_f_313_498" x="31.9995" y="107" width="75" height="33" filterUnits="userSpaceOnUse" color-interpolation-filters="sRGB">
<feFlood flood-opacity="0" result="BackgroundImageFix"/>
<feBlend mode="normal" in="SourceGraphic" in2="BackgroundImageFix" result="shape"/>
<feGaussianBlur stdDeviation="3" result="effect1_foregroundBlur_313_498"/>
</filter>
</defs>
</svg>
