<svg width="263" height="169" viewBox="0 0 263 169" fill="none" xmlns="http://www.w3.org/2000/svg">
<path d="M80.1503 54.7981C76.9101 51.7739 78.5998 45.1821 84.6246 42.4139C86.8937 41.3714 88.7987 40.943 90.4572 40.9445C90.7401 40.9448 91.0159 40.9576 91.285 40.9819C102.395 41.4824 124.305 42.4139 129.34 42.4139C136.447 36.4583 151.596 23.3387 155.333 18.5049C160.004 12.4627 179.792 -1.13219 199.58 1.28469C215.411 3.21819 230.546 10.7508 236.135 14.2754C238.804 14.9299 244.927 17.4777 248.069 22.4323C251.996 28.6256 254.413 37.4714 257.132 42.4139C259.851 47.3564 264.534 66.2382 260.304 79.5311C256.075 92.8239 251.241 102.487 246.105 106.341C240.969 110.195 225.218 118.073 219.638 118.391C207.036 119.109 193.831 113.972 183.775 110.992C176.869 113.972 171.902 114.748 165.14 113.972C157.847 117.251 152.759 118.391 144.749 118.391C141.655 118.391 138.007 116.958 135.793 115.786C135.039 115.386 134.345 115.326 133.583 115.445C131.549 115.765 129.03 117.37 123.58 117.251C117.522 117.12 114.766 111.981 109.625 105.023C108.41 103.379 107.062 101.633 105.506 99.8279C98.9923 92.2724 82.1661 81.3734 74.5672 76.8683C71.0499 73.6023 70.1685 67.9525 72.1022 65.3609C72.3987 64.9636 72.7614 64.6381 73.1909 64.4042C76.9768 61.4083 81.9329 60.4196 83.1865 56.6357C82.6873 56.2711 80.558 55.1786 80.1503 54.7981Z" fill="#9DA990"/>
<path d="M144.749 118.391C147.843 118.391 154.421 111.682 155.333 106.341C156.473 99.6651 156.636 92.3375 154.356 88.2667C153.813 86.4212 151.555 81.7207 146.866 77.6825C141.004 72.6346 137.096 68.0752 133.513 62.376C129.931 56.6768 120.018 52.1039 117.719 53.4833M144.749 118.391C141.655 118.391 138.007 116.958 135.793 115.786C135.039 115.386 134.345 115.326 133.583 115.445M144.749 118.391C152.759 118.391 157.847 117.251 165.14 113.972M74.5672 76.8683C82.1661 81.3734 98.9923 92.2724 105.506 99.8279C107.062 101.633 108.41 103.379 109.625 105.023M74.5672 76.8683C71.0499 73.6023 70.1685 67.9525 72.1022 65.3609M74.5672 76.8683L76.322 75.9381C75.5494 74.6718 74.1168 71.5878 74.5672 69.3828C75.1301 66.6266 80.1211 66.8495 83.9947 66.1052C87.8683 65.3609 88.5387 61.5612 88.7622 59.9968C88.9856 58.4325 87.1866 55.6332 85.1865 54.7981C83.1865 53.963 82.1324 47.7082 85.1865 45.6791C88.2407 43.65 91.7418 43.5341 94.945 46.2158C98.1482 48.8975 99.7125 51.4869 102.841 56.6358C105.97 61.7846 110.737 64.9577 112.749 64.0044C114.76 63.051 116.846 58.7394 118.261 57.6876C119.676 56.6358 125.487 57.6131 128.913 61.8591C132.34 66.1052 133.383 70.6492 136.139 73.4054C138.895 76.1616 143.663 79.2158 147.238 82.2699C150.814 85.3241 153.082 91.5815 153.719 95.9765C154.356 100.372 154.033 103.264 152.474 107.719C150.933 112.123 148.186 116.128 143.898 116.406C141.913 116.535 138.253 113.749 135.793 113.749M117.719 53.4833C114.071 55.6719 113.81 59.9335 110.554 58.9565C107.297 57.9795 100.295 46.0926 97.2011 43.65C95.2725 42.1274 93.2024 40.9471 90.4572 40.9445M117.719 53.4833C120.845 52.441 140.918 54.9096 148.673 51.8157M72.1022 65.3609C72.6752 64.5931 73.4953 64.0937 74.5672 64.0044C80.4292 63.5159 86.454 66.1212 87.1054 62.376C87.648 59.2559 85.6776 58.4557 83.1865 56.6358M72.1022 65.3609C75.9558 61.5772 81.8084 60.7954 83.1865 56.6358M83.1865 56.6358C82.6873 56.2711 80.558 55.1786 80.1503 54.7981C76.9101 51.7739 78.5998 45.1821 84.6246 42.4139C86.8937 41.3714 88.7987 40.943 90.4572 40.9445M90.4572 40.9445C101.267 41.4343 124.177 42.4139 129.34 42.4139M129.34 42.4139C134.502 42.4139 141.764 39.6667 144.749 38.2931M129.34 42.4139C136.447 36.4583 151.596 23.3387 155.333 18.5049C160.004 12.4627 179.792 -1.13219 199.58 1.28469C215.411 3.21819 230.546 10.7508 236.135 14.2754C238.804 14.9299 244.927 17.4777 248.069 22.4323C251.996 28.6256 254.413 37.4714 257.132 42.4139C259.851 47.3564 264.534 66.2382 260.304 79.5311C256.075 92.8239 251.241 102.487 246.105 106.341C240.969 110.195 225.218 118.073 219.638 118.391C207.036 119.109 193.831 113.972 183.775 110.992C176.869 113.972 171.902 114.748 165.14 113.972M165.14 113.972C174.809 107.963 176.869 100.572 187.496 93.277M167.234 73.8136C173.29 71.795 175.182 70.6595 182.121 66.8746M175.182 90.4671C176.317 87.1869 182.121 85.6729 188.177 84.5375M144.749 45.6791C150.959 46.6884 155.333 44.5437 162.313 40.9445M135.793 113.749L133.583 115.445M135.793 113.749C131.162 114.59 126.484 115.979 123.58 115.445C121.233 115.014 118.114 112.954 115.887 110.448C114.105 108.443 112.286 105.751 111.599 104.656L109.625 105.023M133.583 115.445C131.549 115.765 129.03 117.37 123.58 117.251C117.522 117.12 114.766 111.981 109.625 105.023" stroke="#1E1E1E"/>
<path d="M105.505 99.8278C98.9917 92.2723 82.1654 81.3732 74.5665 76.8681L76.3213 75.938C75.5487 74.6716 74.1161 71.5877 74.5665 69.3827C75.1295 66.6265 80.1204 66.8493 83.994 66.105C87.8676 65.3608 88.538 61.561 88.7615 59.9967C88.985 58.4324 87.186 55.633 85.1859 54.7979C83.1858 53.9628 82.1317 47.7081 85.1859 45.679C88.2401 43.6499 91.7412 43.5339 94.9443 46.2157C98.1292 48.8821 99.6939 51.4572 102.787 56.5478L102.84 56.6356C105.969 61.7845 110.737 64.9576 112.748 64.0042C114.759 63.0509 116.845 58.7393 118.26 57.6874C119.676 56.6356 125.486 57.6129 128.913 61.859C132.339 66.105 133.382 70.6491 136.138 73.4053C138.895 76.1615 143.662 79.2156 147.238 82.2698C150.813 85.324 153.082 91.5813 153.719 95.9763C154.355 100.371 154.033 103.264 152.474 107.719C150.932 112.123 148.186 116.128 143.898 116.406C141.912 116.535 138.253 113.749 135.792 113.749C131.162 114.59 126.483 115.979 123.58 115.445C121.233 115.014 118.114 112.953 115.886 110.447C114.104 108.443 112.285 105.751 111.598 104.656L109.624 105.023C108.409 103.379 107.061 101.633 105.505 99.8278Z" fill="#829173"/>
<path d="M72.1016 65.3608C72.6745 64.5929 73.4946 64.0935 74.5665 64.0042C80.4286 63.5157 86.4534 66.1211 87.1047 62.3759C87.6473 59.2558 85.677 58.4556 83.1858 56.6356M74.5665 76.8681C82.1654 81.3732 98.9917 92.2723 105.505 99.8278C107.061 101.633 108.409 103.379 109.624 105.023L111.598 104.656C112.285 105.751 114.104 108.443 115.886 110.447C118.114 112.953 121.233 115.014 123.58 115.445C126.483 115.979 131.162 114.59 135.792 113.749C138.253 113.749 141.912 116.535 143.898 116.406C148.186 116.128 150.932 112.123 152.474 107.719C154.033 103.264 154.355 100.371 153.719 95.9763C153.082 91.5813 150.813 85.324 147.238 82.2698C143.662 79.2156 138.895 76.1615 136.138 73.4053C133.382 70.6491 132.339 66.105 128.913 61.859C125.486 57.6129 119.676 56.6356 118.26 57.6874C116.845 58.7393 114.759 63.0509 112.748 64.0042C110.737 64.9576 105.969 61.7845 102.84 56.6356C99.7118 51.4867 98.1475 48.8974 94.9443 46.2157C91.7412 43.5339 88.2401 43.6499 85.1859 45.679C82.1317 47.7081 83.1858 53.9628 85.1859 54.7979C87.186 55.633 88.985 58.4324 88.7615 59.9967C88.538 61.561 87.8676 65.3608 83.994 66.105C80.1204 66.8493 75.1295 66.6265 74.5665 69.3827C74.1161 71.5877 75.5487 74.6716 76.3213 75.938L74.5665 76.8681Z" stroke="#1E1E1E" stroke-linecap="round" stroke-linejoin="round"/>
<path d="M166.892 62.6017C164.876 61.3535 160.851 53.6003 159.091 49.8797C159.731 48.7596 161.587 46.7593 163.891 47.7194C166.772 48.9196 172.413 61.6415 171.933 62.6017C171.452 63.5618 169.412 64.1619 166.892 62.6017Z" fill="#9F7955"/>
<path d="M178.188 85.8552C178.329 84.2288 173.848 75.6312 171.933 71.8893C172.699 70.6223 175.811 68.3973 177.216 69.8562C184.022 76.9276 183.492 85.8552 183.226 87.1811C182.961 88.507 179.956 89.2141 178.718 89.3025C177.481 89.3909 178.011 87.8883 178.188 85.8552Z" fill="#9F7955"/>
<path d="M152.421 44.1362C151.137 42.5104 145.574 39.7774 143.257 38.6722C141.941 38.6722 144.693 35.5793 146.11 35.5793C148.771 35.5793 149.212 35.5794 152.421 36.8629C155.63 38.1464 157.875 42.2109 157.02 43.3874C156.164 44.564 154.025 46.1684 152.421 44.1362Z" fill="#9F7955"/>
<path d="M178.718 117.251C178.718 113.662 181.724 109.5 183.226 108.288C182.941 107.924 182.079 107.216 180.912 107.294C179.453 107.391 177.216 109.5 176.158 111.319C175.101 113.138 174.265 116.782 175.114 120.905C175.962 125.027 187.435 135.569 189.738 140.783C192.042 145.997 192.528 150.593 192.528 155.394C192.528 160.389 184.806 166.4 184.685 167.37C184.564 168.34 187.353 168.825 188.444 167.976C189.535 167.127 196.938 154.415 196.211 148.11C195.483 141.804 195.922 140.177 189.738 133.023C183.555 125.869 178.718 121.738 178.718 117.251Z" fill="#9F7955"/>
<path d="M130.436 20.529C132.365 25.3953 134.421 32.4849 136.938 35.5793L133.372 38.6722C128.652 33.5337 127.96 26.7167 126.03 22.5216C123.618 17.2778 117.011 15.7046 113.655 16.1241C110.299 16.5436 103.482 20.529 105.579 26.5069C107.257 31.2893 108.516 38.5678 108.935 41.6093H104.74C103.866 38.1833 101.867 30.0518 100.86 24.9338C99.6016 18.5363 106.524 12.3486 114.599 11.6144C122.675 10.8803 128.024 14.4461 130.436 20.529Z" fill="#9F7955"/>
<path d="M62.0118 63.617C57.8434 60.2686 56.106 53.8069 55.7583 50.9946C54.8075 50.3763 52.9745 52.7347 53.0429 55.3314C53.1283 58.5773 55.1356 62.0215 58.4243 65.5817C61.6394 69.0623 69.111 73.9059 72.7153 74.6757C71.6916 72.6467 71.1516 71.6664 71.1516 69.4255C69.8419 68.8845 66.1803 66.9654 62.0118 63.617Z" fill="#9F7955"/>
<path d="M166.892 62.6017C164.876 61.3535 160.851 53.6003 159.091 49.8797C159.731 48.7596 161.587 46.7593 163.891 47.7194C166.772 48.9196 172.413 61.6415 171.933 62.6017C171.452 63.5618 169.412 64.1619 166.892 62.6017Z" stroke="#1E1E1E"/>
<path d="M178.188 85.8552C178.329 84.2288 173.848 75.6312 171.933 71.8893C172.699 70.6223 175.811 68.3973 177.216 69.8562C184.022 76.9276 183.492 85.8552 183.226 87.1811C182.961 88.507 179.956 89.2141 178.718 89.3025C177.481 89.3909 178.011 87.8883 178.188 85.8552Z" stroke="#1E1E1E"/>
<path d="M152.421 44.1362C151.137 42.5104 145.574 39.7774 143.257 38.6722C141.941 38.6722 144.693 35.5793 146.11 35.5793C148.771 35.5793 149.212 35.5794 152.421 36.8629C155.63 38.1464 157.875 42.2109 157.02 43.3874C156.164 44.564 154.025 46.1684 152.421 44.1362Z" stroke="#1E1E1E"/>
<path d="M178.718 117.251C178.718 113.662 181.724 109.5 183.226 108.288C182.941 107.924 182.079 107.216 180.912 107.294C179.453 107.391 177.216 109.5 176.158 111.319C175.101 113.138 174.265 116.782 175.114 120.905C175.962 125.027 187.435 135.569 189.738 140.783C192.042 145.997 192.528 150.593 192.528 155.394C192.528 160.389 184.806 166.4 184.685 167.37C184.564 168.34 187.353 168.825 188.444 167.976C189.535 167.127 196.938 154.415 196.211 148.11C195.483 141.804 195.922 140.177 189.738 133.023C183.555 125.869 178.718 121.738 178.718 117.251Z" stroke="#1E1E1E"/>
<path d="M130.436 20.529C132.365 25.3953 134.421 32.4849 136.938 35.5793L133.372 38.6722C128.652 33.5337 127.96 26.7167 126.03 22.5216C123.618 17.2778 117.011 15.7046 113.655 16.1241C110.299 16.5436 103.482 20.529 105.579 26.5069C107.257 31.2893 108.516 38.5678 108.935 41.6093H104.74C103.866 38.1833 101.867 30.0518 100.86 24.9338C99.6016 18.5363 106.524 12.3486 114.599 11.6144C122.675 10.8803 128.024 14.4461 130.436 20.529Z" stroke="#1E1E1E"/>
<path d="M62.0118 63.617C57.8434 60.2686 56.106 53.8069 55.7583 50.9946C54.8075 50.3763 52.9745 52.7347 53.0429 55.3314C53.1283 58.5773 55.1356 62.0215 58.4243 65.5817C61.6394 69.0623 69.111 73.9059 72.7153 74.6757C71.6916 72.6467 71.1516 71.6664 71.1516 69.4255C69.8419 68.8845 66.1803 66.9654 62.0118 63.617Z" stroke="#1E1E1E"/>
<path d="M102.4 55.2622C103.587 57.4752 106.17 61.2305 108.847 62.5933C112.732 64.5714 113.56 62.884 114.479 60.9932C115.397 59.1025 118.254 55.4754 121.503 56.4644C124.103 57.2556 127.553 59.0279 129.301 60.9932L131.01 64.1896C132.069 65.9087 133.077 67.8039 133.833 68.8119C134.589 69.8199 135.196 70.8627 135.196 70.8627C136.672 72.687 140.925 76.4888 143.617 78.4059C145.924 80.0486 147.355 81.1154 148.531 82.5693C149.168 83.3572 149.95 83.8131 150.24 84.32L151.976 88.3803C153.386 92.6878 154.501 95.2617 154 100.135C153.805 102.035 154 103 153 105C150.365 105.64 146.11 107.008 141.481 107.98C140.827 108.118 140.166 108.247 139.5 108.366C138.671 108.514 137.835 108.644 137 108.751C136.15 108.861 135.301 108.946 134.459 109C134.345 109.007 134.229 109.015 134.113 109.021C133.293 109.07 132.416 109.104 131.5 109.12C130.646 109.134 129.759 109.132 128.853 109.108C122.803 108.947 115.92 107.818 112.666 104.273C112.297 104.371 111.928 104.466 111.561 104.557C110.852 104.734 110.148 104.898 109.452 105.049C107.111 105.555 104.857 105.903 102.824 106.018C96.8667 106.355 89.0395 106.077 86.0233 104.557C84.5907 105.363 82.9656 106.117 81.1876 106.745C80.5419 106.973 79.876 107.184 79.1918 107.374C78.5698 107.547 77.9327 107.703 77.2818 107.84C76.6159 107.98 75.9356 108.098 75.2425 108.194C73.9878 108.366 72.6912 108.461 71.3616 108.461C71.1561 110.958 70.2636 113.974 68.7795 117.084C71.2776 117.084 81.7232 116.45 86.0411 120.499C89.8747 118.029 93.6932 116.159 96.7014 115.06C102.097 113.091 110.148 112.491 113.146 113.776C114.541 114.373 115.623 115.426 116.312 116.617C118.55 119.001 119.393 122.911 118.914 124.681C118.012 128.013 113.506 132.779 106.396 138.148C105.742 138.641 105.067 139.139 104.371 139.642C103.626 140.18 102.857 140.723 102.064 141.27C101.57 141.611 101.067 141.953 100.556 142.297C100.423 142.387 100.289 142.475 100.153 142.563C99.5889 142.929 99.0016 143.284 98.3959 143.627C97.7287 144.005 97.0392 144.368 96.3339 144.715C95.7144 145.02 95.0828 145.313 94.4435 145.593C93.5152 145.999 92.5707 146.378 91.6234 146.727C85.7868 148.877 79.8464 149.894 76.9702 149.211C75.9996 148.98 73.1909 146.77 71.3616 145.072C68.0998 145.761 60.9584 147.149 55.8581 147.229C50.1398 147.319 41.6318 147.229 39.419 145.072C38.2107 143.894 36.5053 139.747 36.1874 138.126C35.5916 136.999 35.864 135.851 36.1874 135.266C34.5306 134.555 32.9689 133.649 31.8028 132.64C28.1926 130.894 25.34 123.593 26.8344 117.416C26.977 116.827 27.1486 116.228 27.3475 115.624C24.418 115.624 21.2183 115.612 17.6243 115.323C17.0451 115.277 16.4555 115.223 15.8553 115.161C15.242 115.098 14.6176 115.026 13.9813 114.944C13.5048 114.883 13.0217 114.816 12.5317 114.743C12.1931 114.693 11.8513 114.64 11.5061 114.583C11.2317 114.539 10.9613 114.491 10.695 114.441C10.0116 114.311 9.35547 114.164 8.72985 114.004C4.07813 112.814 1.11116 110.908 1.11116 110.305V105.203C0.488466 103.859 2.45616 102.6 7.66725 101.545C12.8937 100.487 29.4677 100.583 37.1015 100.763C38.2254 99.7021 39.4027 98.727 40.6159 97.8658C45.893 94.1202 52.4781 92.6878 55.8581 92.6878C57.3731 89.1355 66.5222 81.3888 70.0403 79.4876C76.6768 75.9013 87.0574 71.6436 92.7866 71.6436C92.8664 69.7015 93.2878 67.6785 94.1121 65.9087C95.782 62.3232 99.6785 56.1879 101.418 53.5684L102.4 55.2622Z" fill="#E5BF39"/>
<path d="M102.4 55.2622C99.2355 60.1923 93.6138 71.0017 96.4393 74.7985C99.2648 78.5954 102.4 79.3974 103.614 79.3239M102.4 55.2622C103.587 57.4752 106.17 61.2305 108.847 62.5933C112.732 64.5714 113.56 62.884 114.479 60.9932C115.397 59.1025 118.254 55.4754 121.503 56.4644C124.103 57.2556 127.553 59.0279 129.301 60.9932M102.4 55.2622L101.418 53.5684C99.6785 56.1879 95.782 62.3232 94.1121 65.9087C93.2877 67.6785 92.8664 69.7014 92.7866 71.6436M105.6 79.3239L111.561 77.1164M114.099 76.123C121.715 71.2665 124.997 68.0572 129.301 60.9932M129.301 60.9932L131.01 64.1896M121.503 74.7985C121.93 74.4231 122.369 74.0293 122.816 73.62M121.503 74.7985C120.941 75.2932 120.322 75.7928 119.656 76.2892M121.503 74.7985L126.582 79.4876M131.01 64.1896C132.069 65.9087 133.077 67.8039 133.833 68.8119C134.589 69.8199 135.196 70.8627 135.196 70.8627M131.01 64.1896C129.405 66.9282 126.875 69.7335 124.368 72.1598M135.196 70.8627C136.672 72.687 140.925 76.4888 143.617 78.4059C145.924 80.0486 147.355 81.1154 148.531 82.5693M135.196 70.8627C134.175 72.5717 131.589 75.0464 129.301 77.1164M94.6032 80.7426C94.273 80.2707 93.1495 76.6285 93.0556 75.2809M94.6032 80.7426C91.1512 82.6753 84.9227 85.9199 82.2372 89.9348C80.4562 92.5975 78.9119 96.1815 81.1876 98.4572M94.6032 80.7426C95.0912 81.4402 96.2181 82.4332 97.5539 83.4525M93.0556 75.2809C93.3555 76.7581 93.885 78.0058 94.6032 78.8015C96.875 81.3186 101.909 83.8972 106.268 82.7921C107.602 82.4539 108.955 82.0066 110.291 81.4787M93.0556 75.2809C92.8295 74.1671 92.734 72.9229 92.7866 71.6436M124.368 81.2715C124.881 81.505 125.652 81.8282 126.582 82.1773M124.368 81.2715C123.964 81.5831 123.561 81.8859 123.161 82.1773M124.368 81.2715C124.51 81.1617 124.653 81.0508 124.795 80.939M133.593 84.1276C131.839 83.8577 129.963 83.3373 128.32 82.7921M133.593 84.1276L133.248 88.4859M133.593 84.1276C134.053 84.1984 134.595 84.2623 135.196 84.32M150.24 84.32L151.976 88.3803M150.24 84.32C149.95 83.8131 149.168 83.3572 148.531 82.5693M150.24 84.32C148.872 84.6789 145.551 84.791 143.128 84.7279M120.218 84.1276C121.644 84.8277 124.198 85.9763 126.362 86.8091M120.218 84.1276C120.576 83.9181 120.941 83.6923 121.312 83.4525M120.218 84.1276C120.028 84.2384 119.841 84.3446 119.656 84.4459M129.087 87.7166C128.736 87.6327 128.316 87.5064 127.849 87.3493M129.087 87.7166C130.343 88.0168 131.771 88.2739 133.248 88.4859M129.087 87.7166C126.362 90.2849 124.368 91.0642 120.218 92.6878M143.128 89.2034C145.816 89.1485 150.147 88.6318 151.976 88.3803M143.128 89.2034C142.637 89.2134 142.083 89.2108 141.481 89.1959M143.128 89.2034V84.7279M151.976 88.3803C153.386 92.6878 154.501 95.2617 154 100.135M126.582 79.4876C129.756 80.7426 131.669 81.2715 135.651 81.8641M126.582 79.4876C127.008 79.1308 127.431 78.7693 127.849 78.4059M126.582 79.4876C125.99 79.9833 125.392 80.4698 124.795 80.939M141.481 82.7921C144.052 83.2032 145.867 82.837 148.531 82.5693M126.582 82.1773L126.362 86.8091M126.582 82.1773C127.116 82.3777 127.701 82.5867 128.32 82.7921M126.362 86.8091C126.887 87.0115 127.39 87.1952 127.849 87.3493M127.849 87.3493L128.32 82.7921M133.248 88.4859C133.649 88.5434 134.053 88.5977 134.459 88.6486M135.196 84.32L134.928 88.7058M135.196 84.32C136.947 84.4878 139.21 84.6026 141.481 84.6789M134.928 88.7058C137.265 88.9836 139.606 89.1495 141.481 89.1959M134.928 88.7058C134.771 88.6872 134.615 88.6682 134.459 88.6486M141.481 84.6789V89.1959M141.481 84.6789C142.032 84.6974 142.583 84.7137 143.128 84.7279M141.481 89.1959C139.804 91.1417 134.876 95.3808 130.629 97.5446C129.667 98.035 128.549 98.5632 127.316 99.1077M127.849 78.4059L122.816 73.62M127.849 78.4059C128.342 77.9769 128.827 77.5453 129.301 77.1164M122.816 73.62C123.327 73.1523 123.847 72.6642 124.368 72.1598M123.161 82.1773L117.842 77.5555M123.161 82.1773C122.535 82.6333 121.916 83.0616 121.312 83.4525M117.842 77.5555C117.194 77.9805 116.516 78.3976 115.816 78.8015M117.842 77.5555C118.477 77.1392 119.084 76.7154 119.656 76.2892M115.816 78.8015L121.312 83.4525M115.816 78.8015C115.257 79.1237 114.683 79.4376 114.099 79.7402M112.307 80.6165L117.842 85.3066M112.307 80.6165C112.913 80.3376 113.512 80.0446 114.099 79.7402M112.307 80.6165C111.642 80.9222 110.969 81.2108 110.291 81.4787M117.842 85.3066C117.937 85.2677 118.032 85.2283 118.128 85.1885C118.615 84.9862 119.126 84.7361 119.656 84.4459M117.842 85.3066C117.001 85.6515 116.203 85.9581 115.445 86.2292M124.368 72.1598L129.301 77.1164M119.656 76.2892L124.795 80.939M114.099 79.7402L119.656 84.4459M110.291 81.4787L115.445 86.2292M115.445 86.2292C110.434 88.0208 107.147 88.2592 104.543 87.7166C103.516 87.5026 100.143 85.4281 97.5539 83.4525M81.1876 98.4572C83.4634 100.733 94.249 101.769 98.4175 101.545C101.652 101.372 104.888 100.839 107.945 100.135M81.1876 98.4572C81.7047 99.2675 82.5222 100.46 83.3022 101.545M134.459 88.6486C131.375 91.0146 127.626 93.0559 124.548 94.4882M112.665 98.8854L114.099 103.879M112.665 98.8854C113.485 98.642 114.28 98.3925 115.049 98.1415M112.665 98.8854C111.893 99.1146 111.101 99.3384 110.291 99.5529M114.099 103.879C115.149 103.581 115.966 103.359 117.004 103.025M114.099 103.879C113.621 104.015 113.143 104.146 112.666 104.273M115.049 98.1415L117.004 103.025M115.049 98.1415C115.897 97.8642 116.711 97.585 117.486 97.3101M117.004 103.025C117.927 102.728 118.759 102.444 119.656 102.128M117.004 103.025C118.369 103.814 122.283 105.107 128.5 105.226M117.486 97.3101C117.771 97.7413 118.946 100.743 119.656 102.128M117.486 97.3101C118.464 96.9628 119.379 96.6223 120.218 96.3011M119.656 102.128C120.342 101.886 121.334 101.518 121.997 101.269M110.291 99.5529L111.561 104.557M110.291 99.5529C109.523 99.7563 108.74 99.9513 107.945 100.135M111.561 104.557C110.852 104.734 110.148 104.898 109.452 105.049M111.561 104.557C111.928 104.466 112.297 104.371 112.666 104.273M120.218 96.3011C120.669 96.1284 121.098 95.9613 121.503 95.8017C121.91 95.6415 122.35 95.4611 122.816 95.2617M120.218 96.3011L121.997 101.269M121.997 101.269C122.962 100.908 123.898 100.541 124.795 100.176M122.816 95.2617L124.795 100.176M122.816 95.2617C123.361 95.0289 123.941 94.7704 124.548 94.4882M124.795 100.176C125.677 99.8169 126.521 99.4589 127.316 99.1077M124.548 94.4882L127.316 99.1077M107.945 100.135L109.452 105.049M109.452 105.049C107.111 105.555 104.857 105.903 102.824 106.018C96.8667 106.355 89.0395 106.077 86.0233 104.557M97.5539 83.4525C93.8245 85.3265 86.5027 89.8343 86.0411 92.6878C85.4566 96.3011 88.2492 97.3101 92.1458 97.3101C96.4457 97.3101 103.614 97.3101 112.019 95.2617M92.7866 71.6436C87.0573 71.6436 76.6767 75.9013 70.0403 79.4876C66.5222 81.3888 57.3731 89.1355 55.8581 92.6878M55.8581 92.6878C57.9103 92.7848 62.4104 93.5823 63.9935 95.4087M55.8581 92.6878C52.4781 92.6878 45.893 94.1202 40.6159 97.8658C39.4027 98.727 38.2254 99.7021 37.1015 100.763M63.9935 95.4087C66.7635 98.6042 67.7552 104.005 66.8975 107.748C65.9841 111.734 61.4578 121.598 52.8897 127.431M63.9935 95.4087C66.0803 97.2731 69.7295 101.194 70.946 104.557M52.8897 127.431C51.8799 128.118 50.9119 128.746 49.9757 129.316M52.8897 127.431L56.2653 131.561M31.8028 132.64C28.1926 130.894 25.34 123.593 26.8344 117.416C26.977 116.827 27.1486 116.228 27.3475 115.624M31.8028 132.64C37.172 134.02 41.4171 133.592 46.2157 131.353M31.8028 132.64C32.9689 133.649 34.5306 134.555 36.1874 135.266M47.9918 130.457L51.3668 134.416M47.9918 130.457C48.639 130.108 49.299 129.727 49.9757 129.316M47.9918 130.457C47.3896 130.783 46.7986 131.081 46.2157 131.353M51.3668 134.416C51.9685 134.121 52.5715 133.805 53.1717 133.469M51.3668 134.416C50.7388 134.724 50.1121 135.009 49.4913 135.266M49.9757 129.316L53.1717 133.469M53.1717 133.469C54.2185 132.885 55.2568 132.243 56.2653 131.561M46.2157 131.353L49.4913 135.266M49.4913 135.266C47.0861 136.264 44.7692 136.86 42.8065 136.86C42.2653 136.86 41.6724 136.808 41.0473 136.711M49.9757 125.14C53.8364 121.907 60.6936 113.868 62.0859 107.84C63.4769 101.818 63.4201 94.8788 51.9769 96.2713M49.9757 96.8386C43.4677 97.8659 36.5186 104.876 33.1935 111.021C30.7367 115.561 28.4661 123.501 32.5632 126.274M37.1015 127.85C41.3246 128.48 44.2871 127.85 47.9918 126.274M56.2653 131.561C59.3088 129.5 62.0804 127.065 63.9935 124.681C64.8271 123.642 65.5983 122.573 66.3028 121.49M70.946 104.557C71.0961 104.972 71.2091 105.379 71.2776 105.772C71.4168 106.57 71.4428 107.475 71.3616 108.461M70.946 104.557C72.0997 104.557 73.2808 104.464 74.5032 104.273M83.3022 101.545C84.1678 102.749 84.9874 103.82 85.2989 104.089C85.493 104.257 85.7364 104.413 86.0233 104.557M83.3022 101.545C82.1446 102.052 81.0315 102.492 79.9561 102.868M71.3616 108.461C72.6912 108.461 73.9878 108.366 75.2425 108.194M71.3616 108.461C71.1561 110.958 70.2636 113.974 68.7795 117.084M86.0233 104.557C84.5907 105.363 82.9656 106.117 81.1876 106.745M76.2825 103.932L77.2818 107.84M76.2825 103.932C76.905 103.791 77.5391 103.626 78.1865 103.436M76.2825 103.932C75.679 104.068 75.0864 104.182 74.5032 104.273M77.2818 107.84C77.9327 107.703 78.5698 107.547 79.1918 107.374M77.2818 107.84C76.6159 107.98 75.9356 108.098 75.2425 108.194M78.1865 103.436L79.1918 107.374M78.1865 103.436C78.7654 103.267 79.3548 103.077 79.9561 102.868M79.1918 107.374C79.876 107.184 80.5419 106.973 81.1876 106.745M74.5032 104.273L75.2425 108.194M79.9561 102.868L81.1876 106.745M36.1874 135.266C35.864 135.851 35.5916 136.999 36.1874 138.126M36.1874 135.266C37.8103 135.963 39.5244 136.473 41.0473 136.711M68.7795 139.642C62.9883 141.858 53.7814 142.297 49.9757 142.297C45.2185 142.297 40.6159 141.441 37.6886 139.642C36.9396 139.182 36.4675 138.656 36.1874 138.126M68.7795 139.642C68.6022 141.888 69.3179 143.304 70.4519 144.184M68.7795 139.642C68.9314 138.876 69.3652 137.864 70.0093 136.711M70.4519 144.184C72.6053 145.855 76.267 145.589 78.1865 145.381C81.458 145.026 85.0573 144.182 88.6325 142.92M70.4519 144.184C70.708 144.451 71.0175 144.752 71.3616 145.072M116.312 116.617C115.623 115.426 114.541 114.373 113.146 113.776C110.148 112.491 102.097 113.091 96.7014 115.06C93.6932 116.159 89.8747 118.029 86.0411 120.499M116.312 116.617C117.104 117.987 117.375 119.54 117.004 120.799C115.481 125.964 109.339 130.713 104.371 134.207M116.312 116.617C118.55 119.001 119.393 122.911 118.914 124.681C118.012 128.013 113.506 132.779 106.396 138.148M36.1874 138.126C36.5053 139.747 38.2107 143.894 39.419 145.072C41.6318 147.229 50.1398 147.319 55.8581 147.229C60.9584 147.149 68.0998 145.761 71.3616 145.072M71.3616 145.072C73.1909 146.77 75.9996 148.98 76.9702 149.211C79.8464 149.894 85.7868 148.877 91.6234 146.727M41.0473 136.711C42.8065 138.126 47.673 139.151 51.9769 139.151C58.7499 139.151 65.7574 137.762 70.0093 136.711M70.0093 136.711C71.5537 133.946 74.3069 130.369 77.2818 127.431C78.98 125.753 80.836 124.195 82.7468 122.777M68.7795 117.084C71.2776 117.084 81.7232 116.45 86.0411 120.499M68.7795 117.084C68.0815 118.547 67.2526 120.03 66.3028 121.49M86.0411 120.499C84.9379 121.21 83.8335 121.971 82.7468 122.777M66.3028 121.49C72.1871 119.99 77.2818 120.857 82.7468 122.777M37.1015 100.763C29.4677 100.583 12.8937 100.487 7.66725 101.545C2.45616 102.6 0.488466 103.859 1.11116 105.203M37.1015 100.763C36.2649 101.552 35.4579 102.389 34.6878 103.261M29.3188 111.021C28.5108 112.563 27.8442 114.113 27.3475 115.624M29.3188 111.021C27.0225 111.021 22.5253 111.021 17.6243 110.59M29.3188 111.021C29.7682 110.163 30.2614 109.307 30.7935 108.461M1.11116 105.203C1.26912 105.544 1.59379 105.891 2.07451 106.241C3.56472 107.326 5.75542 108.35 8.72985 109.15M1.11116 105.203C1.11116 106.665 1.11116 109.732 1.11116 110.305C1.11116 110.908 4.07813 112.814 8.72985 114.004M27.3475 115.624C24.418 115.624 21.2183 115.612 17.6243 115.323M8.72985 109.15V114.004M8.72985 109.15C9.35052 109.317 10.0053 109.474 10.695 109.62M8.72985 114.004C9.35547 114.164 10.0116 114.311 10.695 114.441M10.695 109.62V114.441M10.695 109.62C11.2818 109.744 11.8939 109.861 12.5317 109.968M10.695 114.441C10.9613 114.491 11.2317 114.539 11.5061 114.583C11.8513 114.64 12.1931 114.693 12.5317 114.743M13.9813 110.189C14.2757 110.229 14.5751 110.268 14.8794 110.305C15.2052 110.344 15.5306 110.382 15.8553 110.417M13.9813 110.189V114.944M13.9813 110.189C13.4841 110.12 13.0009 110.046 12.5317 109.968M13.9813 114.944C14.6176 115.026 15.242 115.098 15.8553 115.161M13.9813 114.944C13.5048 114.883 13.0217 114.816 12.5317 114.743M15.8553 110.417V115.161M15.8553 110.417C16.4487 110.481 17.0394 110.539 17.6243 110.59M15.8553 115.161C16.4555 115.223 17.0451 115.277 17.6243 115.323M17.6243 110.59V115.323M12.5317 109.968V114.743M34.6878 103.261C25.0973 102.909 8.42719 102.79 6.99576 105.203C6.03035 106.831 17.012 108.461 19.0635 108.461C21.8994 108.461 27.3475 108.882 30.7935 108.461M34.6878 103.261C33.2442 104.896 31.9302 106.655 30.7935 108.461M91.6234 141.763L94.4435 145.593M91.6234 141.763C92.3277 141.465 93.0273 141.153 93.7191 140.824M91.6234 141.763C90.6335 142.18 89.634 142.567 88.6325 142.92M94.4435 145.593C95.0828 145.313 95.7144 145.02 96.3339 144.715M94.4435 145.593C93.5152 145.999 92.5707 146.378 91.6234 146.727M93.7191 140.824L96.3339 144.715M93.7191 140.824C94.4386 140.483 95.1498 140.125 95.8496 139.751M96.3339 144.715C97.0392 144.368 97.7287 144.005 98.3959 143.627M95.8496 139.751L98.3959 143.627M95.8496 139.751C96.5246 139.391 97.1889 139.016 97.8399 138.626M98.3959 143.627C99.0016 143.284 99.5889 142.929 100.153 142.563M97.8399 138.626C97.9747 138.801 99.4381 141.324 100.153 142.563M97.8399 138.626C98.4922 138.236 99.1309 137.831 99.7534 137.413M100.153 142.563C100.289 142.475 100.423 142.387 100.556 142.297C101.067 141.953 101.57 141.611 102.064 141.27M99.7534 137.413C100.024 137.231 100.291 137.047 100.556 136.86C101.021 136.531 101.527 136.18 102.064 135.809M99.7534 137.413C99.9099 137.573 101.359 140.051 102.064 141.27M102.064 141.27C102.857 140.723 103.626 140.18 104.371 139.642M102.064 135.809L104.371 139.642M102.064 135.809C102.785 135.311 103.563 134.776 104.371 134.207M104.371 139.642C105.067 139.139 105.742 138.641 106.396 138.148M88.6325 142.92L91.6234 146.727M104.371 134.207L106.396 138.148M133.833 105.049L134.113 109.021M133.833 105.049C134.736 104.975 135.626 104.881 136.5 104.772M133.833 105.049C132.849 105.13 131.904 105.182 131 105.21M154 100.135C153.805 102.035 154 103 153 105C150.365 105.64 146.11 107.008 141.481 107.98M154 100.135C151.929 101.098 147.096 102.869 141 104.052M112.666 104.273C115.92 107.818 122.803 108.947 128.853 109.108M134.113 109.021C134.229 109.015 134.345 109.007 134.459 109C135.301 108.946 136.15 108.861 137 108.751M134.113 109.021C133.293 109.07 132.416 109.104 131.5 109.12M136.5 104.772L137 108.751M136.5 104.772C137.349 104.665 138.184 104.544 139 104.41M137 108.751C137.835 108.644 138.671 108.514 139.5 108.366M139 104.41L139.5 108.366M139 104.41C139.68 104.298 140.347 104.179 141 104.052M139.5 108.366C140.166 108.247 140.827 108.118 141.481 107.98M141 104.052L141.481 107.98M131 105.21L131.5 109.12M131 105.21C130.129 105.237 129.296 105.241 128.5 105.226M131.5 109.12C130.646 109.134 129.759 109.132 128.853 109.108M128.5 105.226L128.853 109.108M74.5032 137.413C73.1462 141.829 79.9561 141.763 88.6325 138.126C98.1485 134.138 111.561 122.777 111.561 119.431C111.561 115.417 104.543 115.92 94.6032 120.102C87.1689 123.23 75.8601 132.998 74.5032 137.413Z" stroke="#1E1E1E"/>
<path d="M155.333 106.341C154.421 111.682 147.843 118.391 144.749 118.391C141.655 118.391 138.007 116.958 135.793 115.786C135.039 115.386 134.345 115.326 133.583 115.445C131.549 115.765 129.03 117.37 123.58 117.251C117.522 117.12 114.766 111.981 109.625 105.023L111.599 104.656C112.286 105.751 114.105 108.443 115.887 110.448C118.114 112.954 121.233 115.014 123.58 115.445C126.484 115.979 131.162 114.59 135.793 113.749C138.253 113.749 141.913 116.535 143.898 116.406C148.186 116.128 150.933 112.123 152.474 107.719C154.033 103.264 154.356 100.372 153.719 95.9765C153.082 91.5815 150.814 85.3242 147.238 82.27C143.663 79.2158 138.895 76.1617 136.139 73.4055C133.383 70.6493 132.34 66.1052 128.913 61.8592C125.487 57.6132 119.676 56.6358 118.261 57.6876C116.846 58.7395 114.76 63.0511 112.749 64.0044C110.737 64.9578 105.97 61.7847 102.841 56.6358L102.788 56.548C99.6946 51.4574 98.1299 48.8823 94.945 46.2159C91.7418 43.5342 88.2407 43.6501 85.1865 45.6792C82.1324 47.7083 83.1865 53.963 85.1865 54.7982C87.1866 55.6333 88.9856 58.4326 88.7622 59.9969C88.5387 61.5612 87.8683 65.361 83.9947 66.1052C80.1211 66.8495 75.1301 66.6267 74.5672 69.3829C74.1168 71.5879 75.5494 74.6718 76.322 75.9382L74.5672 76.8683C71.0499 73.6023 70.1685 67.9525 72.1022 65.361C72.6752 64.5931 73.4953 64.0938 74.5672 64.0044C80.4292 63.5159 86.454 66.1213 87.1054 62.3761C87.648 59.256 85.6776 58.4558 83.1865 56.6358C82.6873 56.2712 80.558 55.1787 80.1503 54.7982C76.9101 51.774 78.5998 45.1822 84.6246 42.414C86.8937 41.3714 88.7987 40.943 90.4572 40.9446C93.2024 40.9471 95.2725 42.1275 97.2011 43.6501C100.295 46.0926 107.297 57.9795 110.554 58.9566C113.81 59.9336 114.071 55.672 117.719 53.4833C120.018 52.1039 129.931 56.6769 133.513 62.3761C137.096 68.0753 141.004 72.6346 146.866 77.6825C151.555 81.7208 153.813 86.4213 154.356 88.2667C156.636 92.3376 156.473 99.6651 155.333 106.341Z" fill="#D0C7A3"/>
<path d="M135.793 113.749C138.253 113.749 141.913 116.535 143.898 116.406C148.186 116.128 150.933 112.123 152.474 107.719C154.033 103.264 154.356 100.372 153.719 95.9765C153.082 91.5815 150.814 85.3242 147.238 82.27C143.663 79.2158 138.895 76.1617 136.139 73.4055C133.383 70.6493 132.34 66.1052 128.913 61.8592C125.487 57.6132 119.676 56.6358 118.261 57.6876C116.846 58.7395 114.76 63.0511 112.749 64.0044C110.737 64.9578 105.97 61.7847 102.841 56.6358C99.7125 51.4869 98.1482 48.8976 94.945 46.2159C91.7418 43.5342 88.2407 43.6501 85.1865 45.6792C82.1324 47.7083 83.1865 53.963 85.1865 54.7982C87.1866 55.6333 88.9856 58.4326 88.7622 59.9969C88.5387 61.5612 87.8683 65.361 83.9947 66.1052C80.1211 66.8495 75.1301 66.6267 74.5672 69.3829C74.1168 71.5879 75.5494 74.6718 76.322 75.9382L74.5672 76.8683C71.0499 73.6023 70.1685 67.9525 72.1022 65.361C72.6752 64.5931 73.4953 64.0938 74.5672 64.0044C80.4292 63.5159 86.454 66.1213 87.1054 62.3761C87.648 59.256 85.6776 58.4558 83.1865 56.6358C82.6873 56.2712 80.558 55.1787 80.1503 54.7982C76.9101 51.774 78.5998 45.1822 84.6246 42.414C86.8937 41.3714 88.7987 40.943 90.4572 40.9446C93.2024 40.9471 95.2725 42.1275 97.2011 43.6501C100.295 46.0926 107.297 57.9795 110.554 58.9566C113.81 59.9336 114.071 55.672 117.719 53.4833C120.018 52.1039 129.931 56.6769 133.513 62.3761C137.096 68.0753 141.004 72.6346 146.866 77.6825C151.555 81.7208 153.813 86.4213 154.356 88.2667C156.636 92.3376 156.473 99.6651 155.333 106.341C154.421 111.682 147.843 118.391 144.749 118.391C141.655 118.391 138.007 116.958 135.793 115.786C135.039 115.386 134.345 115.326 133.583 115.445M135.793 113.749L133.583 115.445M135.793 113.749C131.162 114.59 126.484 115.979 123.58 115.445C121.233 115.014 118.114 112.954 115.887 110.448C114.105 108.443 112.286 105.751 111.599 104.656L109.625 105.023C114.766 111.981 117.522 117.12 123.58 117.251C129.03 117.37 131.549 115.765 133.583 115.445" stroke="#1E1E1E"/>
</svg>
