<svg width="162" height="176" viewBox="0 0 162 176" fill="none" xmlns="http://www.w3.org/2000/svg">
<path d="M96.734 17.2198C96.0785 22.9947 84.0596 73.2242 78.4442 91.6489C76.4231 85.6291 73.6301 77.3548 71.0566 69.7146L95.3122 3.93506C96.9709 4.76534 97.3264 12.0008 96.734 17.2198Z" fill="#D0C7A3"/>
<path fill-rule="evenodd" clip-rule="evenodd" d="M68.8691 109.77C67.448 108.591 66.0864 107.47 64.9593 106.713C64.7205 106.187 63.4616 99.129 61.9894 90.4627C60.6887 93.2304 57.9924 98.9555 57.6132 99.7146C57.3362 100.269 57.2211 102.04 57.1733 103.629C55.7797 106.278 52.945 112.62 52.7554 116.795C52.5185 122.014 52.772 126.138 52.7554 133.469C52.7515 135.222 51.9611 138.442 50.6227 138.442C49.4851 138.442 47.1612 136.061 44.935 134.547C39.6403 130.947 32.9821 134.41 29.8839 138.442C27.5145 141.527 23.4249 149.917 26.15 160.948C28.8751 171.979 36.4317 173.106 38.1815 173.44C44.3115 174.607 48.5301 172.14 51.8076 167.488C55.0851 162.837 56.2833 159.441 57.0208 148.999C57.1287 147.471 57.1365 144.953 57.1459 141.913C57.1772 131.764 57.2265 119.306 61.0772 115.016C61.2918 115.373 61.8231 116.165 61.8962 116.183C62.2692 116.278 66.5759 111.756 68.8691 109.77ZM51.8076 157.368C51.1445 161.922 46.834 166.472 44.4643 167.488C40.3666 169.245 36.0731 168.052 33.703 165.68C30.7404 162.715 29.4137 155.879 30.4801 148.999C31.5464 142.119 35.6933 138.68 38.1815 137.849C41.499 136.742 45.7374 138.957 47.7786 141.408C50.9953 145.27 52.6364 151.674 51.8076 157.368Z" fill="#D0C7A3"/>
<path d="M57.1733 103.629C57.2211 102.04 57.3362 100.269 57.6132 99.7146C57.9924 98.9555 60.6887 93.2304 61.9894 90.4627C63.4616 99.129 64.7205 106.187 64.9593 106.713C66.0864 107.47 67.448 108.591 68.8691 109.77C66.5759 111.756 62.2692 116.278 61.8962 116.183C61.8231 116.165 61.2918 115.373 61.0772 115.016M57.1733 103.629C57.1393 104.758 57.1393 105.795 57.1393 106.238C57.1393 107.138 59.9238 113.097 61.0772 115.016M57.1733 103.629C55.7797 106.278 52.945 112.62 52.7554 116.795C52.5185 122.014 52.772 126.138 52.7554 133.469C52.7515 135.222 51.9611 138.442 50.6227 138.442C49.4851 138.442 47.1612 136.061 44.935 134.547C39.6403 130.947 32.9821 134.41 29.8839 138.442C27.5145 141.527 23.4249 149.917 26.15 160.948C28.8751 171.979 36.4317 173.106 38.1815 173.44C44.3115 174.607 48.5301 172.14 51.8076 167.488C55.0851 162.837 56.2833 159.441 57.0208 148.999C57.1287 147.471 57.1365 144.953 57.1459 141.913C57.1772 131.764 57.2265 119.306 61.0772 115.016M44.4643 167.488C46.834 166.472 51.1445 161.922 51.8076 157.368C52.6364 151.674 50.9953 145.27 47.7786 141.408C45.7374 138.957 41.499 136.742 38.1815 137.849C35.6933 138.68 31.5464 142.119 30.4801 148.999C29.4137 155.879 30.7404 162.715 33.703 165.68C36.0731 168.052 40.3666 169.245 44.4643 167.488ZM78.4442 91.6489C84.0596 73.2242 96.0785 22.9947 96.734 17.2198C97.3264 12.0008 96.9709 4.76534 95.3122 3.93506L71.0566 69.7146C73.6301 77.3548 76.4231 85.6291 78.4442 91.6489Z" stroke="#1E1E1E" stroke-linecap="round" stroke-linejoin="round"/>
<path d="M109.413 93.1407C100.67 97.5706 88.5746 91.2948 83.6201 87.6032L66.4236 77.2571C62.3434 80.9001 55.7885 82.7628 49.0828 80.9001C41.2138 78.7143 39.3194 73.0409 37.8622 68.8927C35.1767 68.3947 32.6349 66.8957 31.3048 65.8515C27.2938 68.1131 20.4348 67.0937 17.3165 62.9764C15.6277 68.8927 9.29259 69.6278 5.80389 68.3681C0.557576 66.4737 -0.899692 58.3133 4.93015 55.9818C2.89008 48.8414 9.50766 47.3259 9.39287 47.0928C7.55211 44.6155 7.7889 39.9205 10.4665 37.9123C14.197 35.1145 18.3369 36.6008 19.6485 38.6409C23.1458 34.8521 26.3516 34.9979 30.0208 36.6008C28.4984 33.8696 27.7409 30.1479 29.7032 25.8174C33.0839 18.3565 39.4666 15.7627 46.3154 16.9284C48.3556 12.2653 53.0478 7.92282 60.159 8.62229C67.2702 9.32175 71.3795 14.9573 72.5453 17.6876C80.1958 12.9716 87.8292 17.9317 90.1776 20.28C93.6749 23.7773 94.2578 27.8802 94.2578 30.3688C95.8227 30.0948 98.9759 31.1313 100.378 32.2292C103.728 34.8521 103.728 37.038 103.292 39.445C112.023 36.173 115.935 43.005 116.262 47.0927C116.495 50.0071 113.639 52.6458 112.182 53.6008C115.678 53.6008 116.572 55.6738 117.018 56.7103C118.164 55.4505 119.635 54.1968 121.241 53.6008C124.175 52.5121 129.083 53.1472 131.171 53.6008C132.727 49.2786 136.513 45.7723 142.782 46.5099C147.65 47.0826 149.34 50.9943 149.632 53.6008C152.036 52.8573 154.928 52.7213 157.355 54.5245C162.456 58.3132 161.234 63.6688 158.23 67.2022C153.274 73.0312 147.59 71.7197 144.337 69.5338C144.058 72.5454 142.833 76.0221 139.869 77.6942C134.185 80.9001 129.085 78.7142 129.085 78.7142C129.085 78.7142 126.171 83.6688 121.241 80.4629C119.615 84.3863 116.031 89.7876 109.413 93.1407Z" fill="#9DA990"/>
<path d="M122.236 77.257C122.083 78.0954 121.763 79.2029 121.241 80.4629M121.241 80.4629C119.615 84.3863 116.031 89.7876 109.413 93.1407C100.67 97.5706 88.5746 91.2948 83.6201 87.6032L66.4236 77.2571C62.3434 80.9001 55.7885 82.7628 49.0828 80.9001C41.2138 78.7143 39.3194 73.0409 37.8622 68.8927M121.241 80.4629C126.171 83.6688 129.085 78.7142 129.085 78.7142C129.085 78.7142 134.185 80.9001 139.869 77.6942C142.833 76.0221 144.058 72.5454 144.337 69.5338M144.095 65.4536C144.365 66.451 144.486 67.9261 144.337 69.5338M144.337 69.5338C147.59 71.7197 153.274 73.0312 158.23 67.2022C161.234 63.6688 162.456 58.3132 157.355 54.5245C154.928 52.7213 152.036 52.8573 149.632 53.6008M145.697 55.5445C146.583 54.8952 147.995 54.1071 149.632 53.6008M149.632 53.6008C149.34 50.9943 147.65 47.0826 142.782 46.5099C136.513 45.7723 132.727 49.2786 131.171 53.6008M137.681 62.685C129.667 62.685 130.715 54.4632 131.171 53.6008M131.171 53.6008C129.083 53.1472 124.175 52.5121 121.241 53.6008C119.635 54.1968 118.164 55.4505 117.018 56.7103M114.22 60.6412C114.616 59.9597 116.071 57.7518 117.018 56.7103M117.018 56.7103C116.572 55.6738 115.678 53.6008 112.182 53.6008M112.182 53.6008C108.505 53.6008 107.226 55.8361 106.06 57.0018M112.182 53.6008C113.639 52.6458 116.495 50.0071 116.262 47.0927C115.935 43.005 112.023 36.173 103.292 39.445M100.378 40.8266C101.404 40.2445 102.375 39.7889 103.292 39.445M103.292 39.445C103.728 37.038 103.728 34.8521 100.378 32.2292C98.9759 31.1313 95.8227 30.0948 94.2578 30.3688M86.5332 34.2693C88.5733 31.6463 92.6928 30.6429 94.2578 30.3688M94.2578 30.3688C94.2578 27.8802 93.6749 23.7773 90.1776 20.28C87.8292 17.9317 80.1958 12.9716 72.5453 17.6876M72.5453 17.6876C68.3397 20.28 63.3634 26.8375 68.4637 33.2492C71.1207 36.5894 76.2261 35.7971 78.0813 34.2693C80.5586 32.2292 78.6642 27.2746 75.7498 27.2746M72.5453 17.6876C71.3795 14.9573 67.2702 9.32175 60.159 8.62229C53.0478 7.92282 48.3556 12.2653 46.3154 16.9284M46.3154 16.9284C45.7326 18.8227 45.1497 22.3201 46.3154 24.5059M46.3154 16.9284C39.4666 15.7627 33.0839 18.3565 29.7032 25.8174C27.7409 30.1479 28.4984 33.8696 30.0208 36.6008M46.3154 24.5059C50.54 23.388 53.4544 24.0688 55.3488 27.2746C57.047 30.1486 54.9116 33.3949 51.4143 32.2292M46.3154 24.5059C41.3595 25.8174 39.028 31.5005 40.7766 36.0179M33.7834 40.8266C33.1621 40.4016 32.4439 39.7872 31.7419 39.0055M30.0208 36.6008C26.3516 34.9979 23.1458 34.8521 19.6485 38.6409C18.3369 36.6008 14.197 35.1145 10.4665 37.9123C7.7889 39.9205 7.55211 44.6155 9.39287 47.0928M30.0208 36.6008C30.5328 37.5192 31.1312 38.3256 31.7419 39.0055M15.4211 47.8214C13.2352 50.2986 10.0004 48.3623 9.39287 47.0928M9.39287 47.0928C9.50766 47.3259 2.89008 48.8414 4.93015 55.9818C-0.899692 58.3133 0.557576 66.4737 5.80389 68.3681C9.2926 69.6278 15.6277 68.8927 17.3165 62.9764M17.3165 62.9764C20.4348 67.0937 27.2938 68.1131 31.3048 65.8515M17.3165 62.9764C18.4812 58.8962 15.2753 55.1074 11.4881 55.1074M33.0534 64.4336C32.5717 64.9994 31.9784 65.4717 31.3048 65.8515M31.3048 65.8515C32.6349 66.8957 35.1767 68.3947 37.8622 68.8927M51.4143 59.6248C50.3942 65.8515 43.5453 69.5339 37.8622 68.8927M86.2418 85.1261C98.6281 95.618 113.2 90.7828 117.018 79.4429M77.207 63.2678C83.0359 66.7652 93.4428 62.5391 94.2578 56.7103M94.2578 56.7103C95.2765 49.4243 87.7558 42.7401 83.6201 43.304C77.207 44.1783 75.6041 50.1529 81.433 53.0673C83.7975 54.2496 86.0479 53.3102 87.2618 52.193M94.2578 56.7103C98.7738 54.0874 104.02 57.7304 103.292 61.2453M102.417 41.9925C108.246 39.2238 113.637 43.0126 114.22 47.0927M99.2123 71.7197C97.1709 72.0842 93.8193 74.1969 92.6535 77.6942C91.4877 81.1915 92.5078 83.7174 93.6736 85.1261M99.2123 71.7197C103.292 70.9911 108.391 72.3026 110.286 76.0913M99.2123 71.7197C98.3773 67.2367 100.004 63.4252 103.292 61.2453M111.743 68.0767C111.743 72.1569 116.93 71.4888 118.446 68.0767C120.342 63.8114 113.637 58.5537 107.954 59.479C106.171 59.7693 104.6 60.3782 103.292 61.2453M154.002 56.1275C162.454 60.6412 153.565 71.2825 147.299 68.0767M42.2338 70.8454C42.9624 76.6742 49.0828 79.8801 54.7659 79.1515M55.9316 44.0326C53.9887 41.8468 48.3541 37.9997 41.3595 40.0981C32.6162 42.7211 35.2393 50.1529 37.8622 52.193C41.3595 54.9132 49.5185 52.4845 48.0627 47.8214C46.898 44.0909 42.2338 45.0527 41.3595 46.5099M31.7419 39.0055C28.9732 37.4751 23.7272 36.9963 21.3957 40.8266C20.0649 43.0128 21.2499 45.7813 23.7272 45.7813C26.2045 45.7813 26.0587 43.1583 26.0587 43.1583M3.18046 63.5593C5.80389 69.6796 14.6925 67.348 15.4211 62.5392M68.9009 29.4605C66.8608 26.1089 73.2725 15.1797 83.0359 18.8228" stroke="#1E1E1E" stroke-linecap="round" stroke-linejoin="round"/>
<path fill-rule="evenodd" clip-rule="evenodd" d="M52.3641 8.33078C52.3641 8.33078 54.3784 34.5242 55.2078 41.0479C55.7029 44.9423 59.8085 77.6265 61.9889 90.462C63.4611 99.1282 64.72 106.186 64.9588 106.712L68.8669 109.381C68.8669 109.381 73.9433 113.005 76.3331 115.015C79.2951 117.506 81.6648 121.183 82.2572 127.114C82.4381 128.924 82.5858 129.684 82.7577 133.283C83.1489 141.473 83.5025 151.449 83.8111 155.921C84.3289 163.423 88.7132 169.015 91.5567 171.506C96.7705 176.073 102.676 174.977 105.835 173.67C111.064 171.506 113.101 167.015 114.212 161.282C115.608 154.085 114.934 148.297 112.083 142.483C108.884 135.959 103.344 134.507 99.7927 134.507C97.0752 134.507 94.5229 135.349 92.4028 136.755C90.6405 137.924 89.2242 139.716 87.8259 139.608C87.8654 132.768 87.7074 120.495 86.7596 116.794C85.8117 113.093 83.0667 106.989 81.5463 103.628C81.7173 102.997 81.6648 101.73 81.3093 100.307C81.2177 99.9398 80.0854 96.5376 78.4438 91.6481C77.0858 87.6033 75.3792 82.5406 73.625 77.3364C70.3981 67.7563 63.3631 41.4096 61.1773 32.812C58.9915 24.2144 53.0031 0.873876 52.3642 1.19368C51.9777 1.38717 52.3641 8.33078 52.3641 8.33078ZM97.8368 168.992C92.993 167.864 90.4255 164.488 88.8923 159.535C86.0575 150.377 89.9061 142.777 96.3682 140.059C102.83 137.342 107.922 141.615 110.152 147.68C112.083 152.929 110.297 161.197 108.631 163.925C107.328 166.06 104.77 170.607 97.8368 168.992Z" fill="#E8D5AF"/>
<path d="M52.3642 1.19368L68.8669 109.381M52.3642 1.19368C53.0031 0.873876 58.9915 24.2144 61.1773 32.812C63.3631 41.4096 70.3981 67.7563 73.625 77.3364C75.3792 82.5406 77.0858 87.6033 78.4438 91.6481C80.0854 96.5376 81.2177 99.9398 81.3093 100.307C81.6648 101.73 81.7173 102.997 81.5463 103.628M52.3642 1.19368C51.9777 1.38717 52.3641 8.33078 52.3641 8.33078C52.3641 8.33078 54.3784 34.5242 55.2078 41.0479C55.7029 44.9423 59.8085 77.6265 61.9889 90.462C63.4611 99.1282 64.72 106.186 64.9588 106.712L68.8669 109.381M76.3331 115.015C79.2951 117.506 81.6648 121.183 82.2572 127.114C82.4381 128.924 82.5858 129.684 82.7577 133.283C83.1489 141.473 83.5025 151.449 83.8111 155.921C84.3289 163.423 88.7132 169.015 91.5567 171.506C96.7705 176.073 102.676 174.977 105.835 173.67C111.064 171.506 113.101 167.015 114.212 161.282C115.608 154.085 114.934 148.297 112.083 142.483C108.884 135.959 103.344 134.507 99.7927 134.507C97.0752 134.507 94.5229 135.349 92.4028 136.755C90.6405 137.924 89.2242 139.716 87.8259 139.608C87.8654 132.768 87.7074 120.495 86.7596 116.794C85.8117 113.093 83.0667 106.989 81.5463 103.628M76.3331 115.015C77.7549 112.05 80.4866 107.542 81.5463 103.628M76.3331 115.015C73.9433 113.005 68.8669 109.381 68.8669 109.381M70.0535 95.6054C68.8738 95.4067 67.9208 94.9693 67.4469 93.5459C66.9729 92.1226 67.4469 89.0519 70.0535 88.8535M70.0535 95.6054C70.8088 95.7327 71.6109 95.6232 72.3047 95.2065C74.0819 94.139 74.0819 92.2412 73.371 90.462C72.9498 89.4078 71.5344 88.7407 70.0535 88.8535M70.0535 95.6054C70.0535 95.6054 70.0535 91.4903 70.0535 88.8535M88.8923 159.535C90.4255 164.488 92.993 167.864 97.8368 168.992C104.77 170.607 107.328 166.06 108.631 163.925C110.297 161.197 112.083 152.929 110.152 147.68C107.922 141.615 102.83 137.342 96.3682 140.059C89.9061 142.777 86.0575 150.377 88.8923 159.535Z" stroke="#1E1E1E" stroke-linecap="round" stroke-linejoin="round"/>
</svg>
