<svg width="32" height="32" viewBox="0 0 32 32" fill="none" xmlns="http://www.w3.org/2000/svg">
<rect width="32" height="32" rx="6" fill="#9DA990"/>
<path d="M15.5821 3.75973C15.5821 4.46909 16.11 5.43147 15.2741 6.79525C15.1444 7.00695 15.0356 7.22724 14.9494 7.45515C14.867 7.24985 14.7286 6.76886 14.8342 6.4873C14.9661 6.13536 14.9494 5.30894 14.2622 4.81556C13.8579 4.52527 13.6024 3.9357 13.7343 3.36379C13.645 3.42245 13.52 3.56616 13.3824 4.02369C13.2104 4.5956 13.5144 5.25549 13.7343 5.78341C13.9103 6.20575 13.6024 6.4873 13.4664 7.67512C13.4309 7.4793 13.4052 7.28536 13.3824 7.10321C13.312 6.54009 12.6345 5.65143 12.1506 5.43147C12.7225 7.01522 12.2386 7.71911 12.3833 8.55498C12.1863 8.40711 11.9508 8.27271 11.6667 8.15904C10.1269 7.54314 9.81894 6.39932 9.47007 5.78341C9.19097 5.29069 8.36717 4.94754 7.79525 4.94754C8.93908 5.60744 8.74551 6.76886 9.02706 7.36717C9.30862 7.96547 10.2589 8.55498 10.7868 9.47884C10.3114 9.26277 9.92099 9.17404 8.99 8.96249L8.93908 8.95092C8.51457 8.85444 7.61928 8.02706 7.39932 7.45515C7.39932 8.24703 7.5313 9.27887 8.45515 9.6988C8.77273 9.84316 9.09031 10.0822 9.47007 10.4907C8.54314 10.4907 8.10321 10.1387 7.13536 10.1387C7.75126 10.4467 8.33197 11.1594 8.54314 11.5465C8.75431 11.9337 9.13444 12.2651 9.29811 12.3824C9.10761 12.3341 8.93848 12.276 8.8071 12.2064C8.05921 11.8105 7.5313 11.6785 6.47546 11.8545C5.77768 11.9708 4.58375 12.1184 3.26396 11.1946C3.33728 11.7372 3.99425 12.8487 5.15566 12.9543C6.60744 13.0863 6.973 12.9182 7.5313 13.0423C7.92723 13.1303 8.38183 13.3228 8.45515 13.4191C7.99645 13.3052 7.41241 13.4128 6.78341 13.7902C6.07952 14.2125 5.5956 14.67 4.53976 14.3621C4.9357 14.89 5.76605 15.4467 6.29949 15.3739C6.83214 15.3013 7.48471 15.1087 8.05921 15.0016C7.39932 15.5059 7.00338 15.7259 6.07952 15.8578C6.78341 16.3858 7.35532 16.3111 8.23519 16.3111C8.0635 16.41 7.9264 16.4983 7.83925 16.5617C7.35532 16.9137 5.5516 16.6937 5.02369 16.6497C4.60135 16.6145 3.48392 16.6497 3 17.3976C3.48392 17.3976 4.27048 17.3644 4.9357 17.7495C5.77157 18.2335 7.17935 18.2335 7.83925 18.0135C7.91748 17.9874 7.99047 17.9615 8.05921 17.9356C7.4873 18.5854 7.72117 19.1813 7.26734 19.5973C6.73942 20.0812 5.5956 20.3891 5.15566 21.137C5.94754 20.8291 6.54878 21.005 7.13536 20.8291C7.57529 20.6971 7.95656 20.1985 8.23519 19.9932C8.05921 20.3451 8.05921 21.005 7.66327 21.401C7.30957 21.7547 6.78341 22.1049 6.34348 22.3688C6.73942 22.3688 7.56649 22.4216 8.05921 22.1049C8.55194 21.7881 9.07106 20.8291 9.77495 20.3891C9.423 21.533 9.15904 22.6328 8.32317 23.3807C7.79209 23.8559 6.91539 24.1286 6.60744 25.4044C7.35532 24.8764 7.75126 24.7005 8.85109 24.3485C9.95092 23.9966 10.4348 22.5448 10.8748 21.533C10.6548 22.4128 10.6988 22.9407 10.6988 23.8206C10.6988 24.5003 10.2589 25.0524 10.0389 25.2724C10.4935 25.1991 11.5523 24.7093 11.6227 23.8646C11.693 23.0199 11.6667 22.3688 12.4145 21.8849C11.9306 22.5448 12.5553 24.4453 12.0626 25.1844C11.5053 26.0203 11.6226 27.0321 11.9306 27.824C12.0185 26.9881 12.9762 26.2458 13.2944 25.8003C13.7343 25.1844 13.7344 24.2165 13.8224 23.5127C13.8927 22.9495 14.4508 22.1049 14.721 21.7529C14.7091 21.8366 14.7022 21.9246 14.7022 22.0169C14.7022 22.5185 15.0542 24.2605 15.1422 24.9644C15.2686 25.9763 14.7902 26.0203 14.7902 27.2521C14.7902 28.2375 15.5821 29.0998 16.5059 29.2318C16.2854 28.9238 15.9868 28.4399 15.8461 27.912C15.6701 27.2521 16.4654 25.9364 16.418 25.2724C16.33 24.0406 16.2122 23.0434 16.1974 22.3688C16.2144 23.144 16.6388 23.5098 16.7699 23.6886C17.2538 24.3485 17.3418 24.8764 17.2538 25.7123C17.1834 26.381 17.8551 27.0468 18.1777 27.2521C17.9137 26.1082 18.5736 24.8764 18.4416 24.1286C18.3252 23.4687 17.7817 22.8967 17.7817 22.0169C17.9681 22.7623 18.9256 23.2487 19.1015 23.6886C19.2775 24.1286 19.2775 24.7445 19.8494 25.0524C20.3069 25.2988 21.0372 25.3164 21.2572 25.2724C21.0079 25.1111 20.4162 24.6307 20.3333 24.2165C20.2014 23.5566 20.3773 22.7208 20.1134 22.2808C19.9022 21.9289 19.6148 21.5916 19.4535 21.313C20.0694 21.7969 20.7733 22.0609 21.2572 22.5888C21.7411 23.1167 21.6091 23.8646 22.753 24.6565C23.668 25.29 24.2487 25.5363 24.0728 26.5042C24.9526 25.8003 24.6183 24.6213 23.9848 24.1286C23.1929 23.5127 23.1489 23.0727 22.9723 22.2808C22.841 21.6915 21.8287 20.9171 21.3452 20.6971C22.0491 20.7851 23.0169 20.5211 23.5448 20.8291C23.9672 21.0754 24.6007 21.7089 25.9645 21.489C25.5245 21.269 25.1286 20.9171 24.9526 20.4771C25.4366 20.5651 26.0085 20.2132 26.4044 19.8612C26.0525 19.7879 25.2694 19.6589 24.7767 19.3773C24.2839 19.0957 24.3367 18.3655 22.9723 17.6176C23.5934 17.8209 24.1444 18.0575 24.6007 18.0575C25.4904 18.0575 26.4924 17.6616 27.0203 17.2656C27.4426 16.9489 28.6041 16.8257 29 16.8257C28.736 16.5177 27.9882 16.1658 27.4602 16.1658C26.8003 16.1658 25.5245 16.5617 24.9526 16.6057C24.4951 16.6409 23.0316 16.2831 22.401 16.0778C22.753 16.1218 24.2487 16.0778 24.7767 15.6819C25.0554 15.4728 26.1404 14.802 26.8003 14.582C26.2284 14.4501 26.1404 14.2554 24.4247 14.582C23.7597 14.7087 23.0609 14.582 22.489 14.2554C23.3777 13.9809 23.9643 13.4663 24.4247 13.018C25.3486 12.1184 25.7885 12.1624 27.0203 11.8985C28.0058 11.6873 28.3841 11.0186 28.2961 10.3587C27.5922 11.2386 26.9323 11.0186 26.0525 11.0186C24.9526 11.0186 23.9842 11.7393 23.3249 12.3384C22.577 13.018 21.5212 13.0407 20.9053 13.018C21.2861 12.9451 21.8197 12.7179 21.9611 12.4704C22.313 11.8545 22.841 11.5025 23.5448 11.3265C24.108 11.1858 24.586 10.5053 24.6887 10.2267C24.3514 10.388 23.5448 10.7986 23.0609 10.7106C22.5761 10.6225 22.0051 10.6227 21.4332 10.8866C21.6971 10.4467 22.577 10.4467 23.0609 9.83078C23.4047 9.39322 23.5742 8.55498 23.5448 8.11505C23.0609 8.86293 22.489 9.47884 21.4332 9.65481C20.793 9.7615 20.4222 9.96276 20.1117 10.4467C20.3303 10.0178 20.6728 9.58823 21.3452 9.17088C21.8971 8.82834 22.621 7.98307 22.841 7.32317C23.0169 6.79525 23.1929 5.95938 23.9848 5.56345C23.3689 5.56345 22.665 5.93299 22.313 6.35532C21.8731 6.88324 21.7411 7.8071 20.6853 8.37901C19.9382 8.78368 19.2335 9.25887 18.8376 10.4467C18.7056 9.56682 18.9168 9.01251 19.2335 8.73095C19.7779 8.24703 19.8934 7.63295 19.8934 7.10321C19.8934 6.22334 20.1134 5.8274 20.5093 5.25549C20.2014 5.40214 19.6734 5.43147 19.1455 6.04737C18.5296 6.76593 18.6616 7.58713 18.3097 8.02706C18.0633 8.33501 17.7817 8.46699 17.4363 9.0829C17.5072 8.61615 17.7479 7.98567 17.9137 7.45515C18.0651 6.97067 17.7817 5.91539 17.3418 5.43147C17.3418 5.94472 17.2538 7.08561 16.9019 7.54314C16.5499 8.00067 16.2675 8.46699 16.2675 9.17088L16.2622 9.15031C16.2106 8.95074 16.1579 8.74674 16.11 8.55498C15.934 7.85109 16.374 6.97123 16.6819 6.13536C16.9819 5.32117 16.6379 4.15566 16.374 3.53976C16.1628 3.04704 16.418 2.43993 16.5499 2C16.022 2.30795 15.5821 2.6159 15.5821 3.75973Z" fill="#E5BF39"/>
<path d="M15.0101 10.2707C14.6666 9.30877 14.6423 8.26755 14.9494 7.45515M16.5059 10.2267C16.5059 9.96276 16.3654 9.54988 16.2675 9.17088M16.11 5.78341C15.934 6.70727 14.9662 8.55498 15.802 9.83078M15.1861 8.24703C15.0982 9.0829 15.1861 9.47884 15.4941 9.83078M16.374 4.5956C16.6379 5.73942 16.11 6.26734 15.978 7.45515M16.2675 9.17088C16.2143 8.96479 16.1596 8.75333 16.11 8.55498C15.934 7.85109 16.374 6.97123 16.6819 6.13536C16.9819 5.32117 16.6379 4.15566 16.374 3.53976C16.1628 3.04704 16.418 2.43993 16.5499 2C16.022 2.30795 15.5821 2.6159 15.5821 3.75973C15.5821 4.46909 16.11 5.43147 15.2741 6.79525C15.1444 7.00695 15.0356 7.22724 14.9494 7.45515M16.2675 9.17088C16.2675 8.46699 16.5499 8.00067 16.9019 7.54314C17.2538 7.08561 17.3418 5.94472 17.3418 5.43147C17.7817 5.91539 18.0651 6.97067 17.9137 7.45515C17.7479 7.98567 17.5072 8.61615 17.4363 9.0829M17.4737 10.4467C17.5177 10.2267 17.5002 9.83078 17.4298 9.47884C17.4081 9.37048 17.4131 9.23543 17.4363 9.0829M17.4298 6.66327C17.3418 7.27918 17.2978 7.49914 16.9019 8.02706M17.4298 8.02706C16.9899 8.95092 16.9899 9.47884 17.2098 9.96276M16.9019 8.68696C16.7699 9.30286 16.8139 9.65481 16.9899 9.96276M17.4363 9.0829C17.7817 8.46699 18.0633 8.33501 18.3097 8.02706C18.6616 7.58713 18.5296 6.76593 19.1455 6.04737C19.6734 5.43147 20.2014 5.40214 20.5093 5.25549C20.1134 5.8274 19.8934 6.22334 19.8934 7.10321C19.8934 7.63295 19.7779 8.24703 19.2335 8.73095C18.9168 9.01251 18.7056 9.56682 18.8376 10.4467M18.8376 10.4467L18.6616 10.9306M18.8376 10.4467C19.2335 9.25887 19.9382 8.78368 20.6853 8.37901C21.7411 7.8071 21.8731 6.88324 22.313 6.35532C22.665 5.93299 23.3689 5.56345 23.9848 5.56345C23.1929 5.95938 23.0169 6.79525 22.841 7.32317C22.621 7.98307 21.8971 8.82834 21.3452 9.17088C20.6728 9.58823 20.3303 10.0178 20.1117 10.4467M18.3097 8.95092C18.0017 9.65481 18.0457 10.1387 18.3097 10.3587M18.5736 10.3587C18.3537 10.0068 18.2217 9.34686 19.0575 8.46699M18.3097 8.37901C18.8376 7.8071 18.7056 7.23519 19.0135 6.83925M19.8054 5.95938C19.5855 6.44331 19.5855 6.66327 19.5855 7.01522M19.6294 11.6785C19.7174 11.1946 19.9155 10.8316 20.1117 10.4467M19.9814 9.65481C19.8054 9.83078 19.6734 10.0068 19.5855 10.3587M20.3333 9.65481C19.9814 10.0068 19.8054 10.1827 19.6734 10.6227M22.841 6.35532C22.621 6.66327 22.533 6.88324 22.489 7.10321M20.1117 10.4467C20.4222 9.96276 20.793 9.7615 21.4332 9.65481C22.489 9.47884 23.0609 8.86293 23.5448 8.11505C23.5742 8.55498 23.4047 9.39322 23.0609 9.83078C22.577 10.4467 21.6971 10.4467 21.4332 10.8866M21.4332 10.8866C21.222 11.2386 21.0372 11.9425 20.2893 12.4704M21.4332 10.8866C22.0051 10.6227 22.5761 10.6225 23.0609 10.7106C23.5448 10.7986 24.3514 10.388 24.6887 10.2267C24.586 10.5053 24.108 11.1858 23.5448 11.3265C22.841 11.5025 22.313 11.8545 21.9611 12.4704C21.8197 12.7179 21.2861 12.9451 20.9053 13.018M20.3333 11.9864C20.9492 11.3265 20.8613 10.7106 21.3452 10.4467C21.7855 10.2065 22.313 10.1387 22.709 9.7428M20.1117 11.8545C20.4213 11.5905 20.5093 11.4585 20.6853 11.0186M20.6413 13.0423C20.7038 13.0423 20.823 13.0337 20.9053 13.018M20.9053 13.018C21.5212 13.0407 22.577 13.018 23.3249 12.3384C23.9842 11.7393 24.9526 11.0186 26.0525 11.0186C26.9323 11.0186 27.5922 11.2386 28.2961 10.3587C28.3841 11.0186 28.0058 11.6873 27.0203 11.8985C25.7885 12.1624 25.3486 12.1184 24.4247 13.018C23.9643 13.4663 23.3777 13.9809 22.489 14.2554M21.1692 14.4501C21.6364 14.4374 22.1312 14.3659 22.489 14.2554M20.7733 12.7783C21.2132 12.6463 21.3452 12.4704 21.6971 12.1184M20.7733 12.4704C20.9492 12.4264 21.0812 12.3824 21.2132 12.1624M21.4332 14.0541C22.225 14.0541 22.621 13.8342 23.3249 13.4382M21.6091 13.7462C21.9611 13.7462 22.0931 13.7462 22.401 13.5702M23.9848 12.3384C24.6007 11.5905 25.1726 11.3265 26.0525 11.3265M26.0525 11.7665C26.7124 11.7665 27.2403 11.6785 27.6362 11.4145M22.489 14.2554C23.0609 14.582 23.7597 14.7087 24.4247 14.582C26.1404 14.2554 26.2284 14.4501 26.8003 14.582C26.1404 14.802 25.0554 15.4728 24.7767 15.6819C24.2487 16.0778 22.753 16.1218 22.401 16.0778M22.401 16.0778C22.1195 16.0426 21.6091 15.9458 21.2572 15.9458M22.401 16.0778C23.0316 16.2831 24.4951 16.6409 24.9526 16.6057C25.5245 16.5617 26.8003 16.1658 27.4602 16.1658C27.9882 16.1658 28.736 16.5177 29 16.8257C28.6041 16.8257 27.4426 16.9489 27.0203 17.2656C26.4924 17.6616 25.4904 18.0575 24.6007 18.0575C24.1444 18.0575 23.5934 17.8209 22.9723 17.6176M20.9932 17.2656C21.6971 17.2216 22.3958 17.4289 22.9723 17.6176M23.9848 17.6176C25.2166 17.8815 25.5685 17.5296 26.4924 17.1776M21.6091 16.2538C22.621 16.2538 22.9498 16.6023 23.8088 16.8257M22.9723 17.6176C24.3367 18.3655 24.2839 19.0957 24.7767 19.3773C25.2694 19.6589 26.0525 19.7879 26.4044 19.8612C26.0085 20.2132 25.4366 20.5651 24.9526 20.4771M24.9526 20.4771C24.6007 19.7292 23.5448 19.2893 22.621 19.2013C21.6519 19.109 21.0372 18.4534 20.6413 18.0575M24.9526 20.4771C25.1286 20.9171 25.5245 21.269 25.9645 21.489C24.6007 21.7089 23.9672 21.0754 23.5448 20.8291C23.0169 20.5211 22.0491 20.7851 21.3452 20.6971M19.8054 19.2013C19.9814 19.6852 20.7821 20.6267 21.3452 20.6971M21.3452 20.6971C21.8287 20.9171 22.841 21.6915 22.9723 22.2808C23.1489 23.0727 23.1929 23.5127 23.9848 24.1286C24.6183 24.6213 24.9526 25.8003 24.0728 26.5042C24.2487 25.5363 23.668 25.29 22.753 24.6565C21.6091 23.8646 21.7411 23.1167 21.2572 22.5888C20.7733 22.0609 20.0694 21.7969 19.4535 21.313M22.841 18.0575C23.5448 18.3215 23.6328 18.5854 24.0728 19.1573M21.3452 17.6176C21.7411 17.6616 21.9611 17.6176 22.313 17.8815M20.9053 18.6734C21.0812 19.0254 21.2572 19.2013 21.6971 19.3773M24.6007 20.4771C24.7767 20.8291 24.9526 21.005 25.1286 21.137M19.4535 21.313C19.003 20.959 18.8082 20.2572 18.7935 20.0812M19.4535 21.313C19.6148 21.5916 19.9022 21.9289 20.1134 22.2808C20.3773 22.7208 20.2014 23.5566 20.3333 24.2165C20.4162 24.6307 21.0079 25.1111 21.2572 25.2724C21.0372 25.3164 20.3069 25.2988 19.8494 25.0524C19.2775 24.7445 19.2775 24.1286 19.1015 23.6886C18.9256 23.2487 17.9681 22.7623 17.7817 22.0169M20.6413 19.8612C20.9053 20.2132 21.1692 20.3012 21.6091 20.3891M21.4332 21.137C22.0051 21.577 22.489 21.7529 22.489 22.8967M23.6768 24.3485C24.1608 24.7445 24.2487 24.9644 24.2487 25.3604M22.313 23.6886C22.401 24.2165 22.841 24.4365 23.1489 24.6565M21.8731 22.1489C22.1811 22.4128 22.225 22.7208 22.313 23.0727M17.8697 20.5211C17.723 20.7264 17.6498 21.489 17.7817 22.0169M17.7817 22.0169C17.7817 22.8967 18.3252 23.4687 18.4416 24.1286C18.5736 24.8764 17.9137 26.1082 18.1777 27.2521C17.8551 27.0468 17.1834 26.381 17.2538 25.7123C17.3418 24.8764 17.2538 24.3485 16.7699 23.6886C16.6388 23.5098 16.2144 23.144 16.1974 22.3688M19.5415 22.0169C19.7614 22.2808 19.8494 22.5888 19.8494 22.9847M18.0457 21.6209C18.1337 22.2808 18.3976 22.5888 18.7056 22.7648M19.4535 23.9086C19.4535 23.979 19.5415 24.4805 19.8494 24.6565M18.2657 21.137C18.2657 21.7969 18.4856 22.1489 18.7056 22.2808M16.418 20.8731C16.1811 21.4304 16.1895 22.0096 16.1974 22.3688M16.418 22.4568C16.5059 22.9847 16.6819 23.0727 16.8579 23.2927M17.3858 21.313C17.1658 22.2808 17.3858 22.5888 17.6498 23.2047M18.0457 24.0406L18.1777 24.7445M16.1974 22.3688C16.2122 23.0434 16.33 24.0406 16.418 25.2724C16.4654 25.9364 15.6701 27.2521 15.8461 27.912C15.9868 28.4399 16.2854 28.9238 16.5059 29.2318C15.5821 29.0998 14.7902 28.2375 14.7902 27.2521C14.7902 26.0203 15.2686 25.9763 15.1422 24.9644C15.0542 24.2605 14.7022 22.5185 14.7022 22.0169C14.7022 21.9246 14.7091 21.8366 14.721 21.7529M15.0542 20.8291C14.9804 21.0013 14.7828 21.3179 14.721 21.7529M15.1422 21.225C14.8782 22.2808 14.9662 22.7648 15.1422 23.3807M15.978 24.7445C15.978 25.5803 15.978 25.8883 15.7141 26.4162M15.1422 26.7242C15.0542 27.2521 15.0542 27.516 15.2301 27.912M14.721 21.7529C14.4508 22.1049 13.8927 22.9495 13.8224 23.5127C13.7344 24.2165 13.7343 25.1844 13.2944 25.8003C12.9762 26.2458 12.0185 26.9881 11.9306 27.824C11.6226 27.0321 11.5053 26.0203 12.0626 25.1844C12.5553 24.4453 11.9306 22.5448 12.4145 21.8849M12.4145 21.8849C13.1624 21.357 13.2944 21.137 13.5584 20.3891M12.4145 21.8849C11.6667 22.3688 11.693 23.0199 11.6227 23.8646C11.5523 24.7093 10.4935 25.1991 10.0389 25.2724C10.2589 25.0524 10.6988 24.5003 10.6988 23.8206C10.6988 22.9407 10.6548 22.4128 10.8748 21.533M12.5465 19.7292C12.0186 19.8612 11.0507 20.8291 10.8748 21.533M10.8748 21.533C10.4348 22.5448 9.95092 23.9966 8.85109 24.3485C7.75126 24.7005 7.35532 24.8764 6.60744 25.4044C6.91539 24.1286 7.79209 23.8559 8.32317 23.3807C9.15904 22.6328 9.423 21.533 9.77495 20.3891M12.5465 21.137C12.0186 21.9289 11.4467 22.0169 11.2707 22.9407M14.4382 21.137C14.2183 22.2808 13.4235 22.6328 13.4704 24.1286M13.1624 24.9644C12.9425 25.7123 12.6785 25.8883 12.2826 26.4162M13.4704 22.5448C13.1624 23.1167 13.1184 23.2927 13.1184 23.9966M11.6227 21.6209C11.3587 22.0169 11.0947 22.0169 11.0947 22.5448M12.9425 21.7529C12.6785 22.1489 12.6785 22.3688 12.6785 22.9407M11.6227 18.6734C11.1681 18.7907 10.0565 19.4741 9.77495 20.3891M9.77495 20.3891C9.07106 20.8291 8.55194 21.7881 8.05921 22.1049C7.56649 22.4216 6.73942 22.3688 6.34348 22.3688C6.78341 22.1049 7.30957 21.7547 7.66327 21.401C8.05921 21.005 8.05921 20.3451 8.23519 19.9932M8.85109 23.9966C9.46699 23.6006 9.64297 23.2047 9.77495 22.7648M10.3469 21.7529C10.5668 21.005 11.0947 20.5651 11.6227 19.9932M10.8748 20.2132C10.4788 20.6971 10.3469 20.9171 10.0389 21.6209M10.4788 20.3012C10.2589 20.5651 10.0389 20.6971 10.0389 21.225M11.2935 18.2335C11.0442 18.4388 10.3557 18.8846 9.68696 19.0254C8.85109 19.2013 8.41116 19.6413 8.23519 19.9932M8.23519 19.9932C7.95656 20.1985 7.57529 20.6971 7.13536 20.8291C6.54878 21.005 5.94754 20.8291 5.15566 21.137C5.5956 20.3891 6.73942 20.0812 7.26734 19.5973C7.72117 19.1813 7.4873 18.5854 8.05921 17.9356M10.8308 17.1336C10.4055 17.119 9.77495 17.2216 9.29102 17.3976C8.84618 17.5594 8.5703 17.7436 8.05921 17.9356M10.6108 15.5059C9.82677 15.5059 8.82611 15.9708 8.23519 16.3111M8.05921 17.9356C7.99047 17.9615 7.91748 17.9874 7.83925 18.0135C7.17935 18.2335 5.77157 18.2335 4.9357 17.7495C4.27048 17.3644 3.48392 17.3976 3 17.3976C3.48392 16.6497 4.60135 16.6145 5.02369 16.6497C5.5516 16.6937 7.35532 16.9137 7.83925 16.5617C7.9264 16.4983 8.0635 16.41 8.23519 16.3111M10.6988 18.2335C10.1269 18.5414 9.77495 18.6734 9.29102 18.6734M7.4873 20.2132C7.13536 20.4771 7.00338 20.5651 6.60744 20.5651M9.59897 20.2132C9.15904 20.3891 8.93908 20.5651 8.71911 21.005M9.59897 18.4534C10.0389 18.3215 10.2149 18.2335 10.4788 17.9356M10.6108 15.2419C10.3322 15.2713 9.66056 15.2683 9.20304 15.022C8.94587 14.8835 8.5286 14.914 8.05921 15.0016M10.7868 14.0981C9.77495 14.3181 9.32622 13.9749 8.93908 13.6582C8.8011 13.5453 8.63809 13.4646 8.45515 13.4191M8.05921 15.0016C7.48471 15.1087 6.83214 15.3013 6.29949 15.3739C5.76605 15.4467 4.9357 14.89 4.53976 14.3621C5.5956 14.67 6.07952 14.2125 6.78341 13.7902C7.41241 13.4128 7.99645 13.3052 8.45515 13.4191M8.05921 15.0016C7.39932 15.5059 7.00338 15.7259 6.07952 15.8578C6.78341 16.3858 7.35532 16.3111 8.23519 16.3111M8.58713 16.6497C9.20304 16.3111 9.68696 16.0338 10.2589 16.0338M10.0389 14.4501C9.423 14.582 8.93908 14.1421 8.36717 14.0541M3.92386 17.1336C4.36379 16.9137 4.75973 16.9137 5.5956 16.9137M9.77495 16.7377L10.3909 16.6497M9.29102 14.714C9.68696 14.89 9.86293 14.89 10.2589 14.714M11.4467 12.6463C10.966 12.6463 9.97515 12.5541 9.29811 12.3824M8.45515 13.4191C8.38183 13.3228 7.92723 13.1303 7.5313 13.0423C6.973 12.9182 6.60744 13.0863 5.15566 12.9543C3.99425 12.8487 3.33728 11.7372 3.26396 11.1946C4.58375 12.1184 5.77768 11.9708 6.47546 11.8545C7.5313 11.6785 8.05921 11.8105 8.8071 12.2064C8.93848 12.276 9.10761 12.3341 9.29811 12.3824M8.67512 13.1743C9.37901 13.8782 10.0389 13.9221 10.7868 13.6582M10.7868 13.1743C10.2149 13.6142 9.73095 13.4191 9.37901 13.1743M4.18782 12.1624C4.67174 12.6903 5.15566 12.7343 5.99153 12.7343M5.46362 14.89C5.94754 15.11 6.38747 15.066 6.8714 14.89M11.7546 12.2504C11.476 12.2651 10.69 12.0216 10.1269 11.2826C9.88494 10.965 9.66897 10.7046 9.47007 10.4907M10.7868 9.47884C10.3029 9.25887 9.90693 9.17088 8.93908 8.95092C8.51457 8.85444 7.61928 8.02706 7.39932 7.45515C7.39932 8.24703 7.5313 9.27887 8.45515 9.6988C8.77273 9.84316 9.09031 10.0822 9.47007 10.4907M10.7868 9.47884C11.2267 10.4467 11.7106 10.9306 12.4585 11.5025M10.7868 9.47884C10.2589 8.55498 9.30862 7.96547 9.02706 7.36716C8.74551 6.76886 8.93908 5.60744 7.79525 4.94754C8.36717 4.94754 9.19097 5.29069 9.47007 5.78341C9.81894 6.39932 10.1269 7.54314 11.6667 8.15904C11.9508 8.27271 12.1863 8.40711 12.3833 8.55498M9.47007 10.4907C8.54314 10.4907 8.10321 10.1387 7.13536 10.1387C7.75126 10.4467 8.33197 11.1594 8.54314 11.5465C8.75431 11.9337 9.13444 12.2651 9.29811 12.3824M10.1269 10.7106C10.5668 11.3265 10.9628 11.5905 11.5787 11.6785M10.8748 10.9306C11.0507 11.1946 11.3147 11.2826 11.6667 11.2826M8.67512 11.2826C8.93908 11.6785 9.20304 11.8545 9.47007 11.9864M13.6463 10.7106C13.5144 10.1387 13.2248 9.18662 12.3833 8.55498M11.2707 9.6988C11.5787 10.4467 11.7986 10.6227 12.2386 10.9306M9.77495 7.01522C10.2589 7.71911 10.6108 7.89508 11.2707 8.24703M11.8426 10.1387C12.1066 10.4907 12.3265 10.6227 12.6345 10.7986M8.67512 5.43147C8.93908 5.78341 9.02706 6.04737 9.02706 6.39932M12.3833 8.55498C12.2386 7.71911 12.7225 7.01522 12.1506 5.43147C12.6345 5.65143 13.312 6.54009 13.3824 7.10321C13.4052 7.28536 13.4309 7.4793 13.4664 7.67512M14.7462 10.3147C14.7168 10.1241 14.5737 9.50884 14.1743 9.17088C13.7504 8.81219 13.5681 8.23597 13.4664 7.67512M13.0744 7.01522C13.2944 7.45515 13.0744 7.98307 13.3824 8.37901M13.9543 9.39085C14.1743 9.6988 14.3502 9.87477 14.3942 10.3587M13.4664 7.67512C13.6024 6.4873 13.9103 6.20575 13.7343 5.78341C13.5144 5.25549 13.2104 4.5956 13.3824 4.02369C13.52 3.56616 13.645 3.42245 13.7343 3.36379C13.6024 3.9357 13.8579 4.52527 14.2622 4.81556C14.9494 5.30894 14.9661 6.13536 14.8342 6.4873C14.7286 6.76886 14.867 7.24985 14.9494 7.45515M14.2622 5.43147C14.4822 5.95938 14.4822 6.13536 14.4822 6.66327M21.6091 15.4047C22.3161 15.6819 22.9075 15.6819 23.6678 15.5736M23.8088 14.8978C24.4845 15.0386 24.8506 14.582 25.5265 14.6725M22.841 15.3202C22.401 15.3202 21.9611 15.2357 21.6971 15.0386" stroke="#1E1E1E" stroke-width="0.1" stroke-linecap="round" stroke-linejoin="round"/>
<circle cx="15.934" cy="15.5499" r="5.31717" fill="#E5BF39" stroke="#1E1E1E" stroke-width="0.1"/>
<path d="M11.5347 14.2845C12.4301 12.4352 15.1164 11.8318 15.6225 14.7906V16.0948" stroke="#1E1E1E" stroke-width="0.1" stroke-linecap="round" stroke-linejoin="round"/>
<path d="M15.389 16.2895C15.2332 16.562 15.4668 16.6788 15.7004 16.6788C15.8367 16.854 16.0897 16.8735 16.2065 16.6788C16.2065 16.6788 16.6348 16.6788 16.4791 16.2895" stroke="#1E1E1E" stroke-width="0.1" stroke-linecap="round" stroke-linejoin="round"/>
<path d="M12.2938 14.2261C12.4106 13.9925 12.5274 13.8562 12.761 13.681M12.2938 14.2261C12.7805 15.1215 13.7733 14.9658 14.6298 14.4986M12.2938 14.2261H11.8267C12.0213 14.6349 12.7356 15.0826 13.2671 15.0826C14.0263 15.0826 14.3183 14.7322 14.6298 14.4986M13.4229 13.4085C14.4351 13.6032 14.766 14.0898 14.9023 14.4986H14.6298" stroke="#1E1E1E" stroke-width="0.1" stroke-linecap="round" stroke-linejoin="round"/>
<path d="M20.3333 14.2845C19.4379 12.4352 16.7516 11.8318 16.2455 14.7906V16.0948" stroke="#1E1E1E" stroke-width="0.1" stroke-linecap="round" stroke-linejoin="round"/>
<path d="M19.5741 14.2261C19.4573 13.9925 19.3405 13.8562 19.107 13.681M19.5741 14.2261C19.0875 15.1215 18.0947 14.9658 17.2382 14.4986M19.5741 14.2261H20.0413C19.8467 14.6349 19.1324 15.0826 18.6008 15.0826C17.8417 15.0826 17.5497 14.7322 17.2382 14.4986M18.4451 13.4085C17.4329 13.6032 17.102 14.0898 16.9657 14.4986H17.2382" stroke="#1E1E1E" stroke-width="0.1" stroke-linecap="round" stroke-linejoin="round"/>
<path d="M14.5519 17.5937L14.805 17.7689M14.805 17.7689C15.0386 17.6067 15.4645 17.399 15.6615 17.399C15.8561 17.399 15.9729 17.5353 15.9729 17.5353C15.9729 17.5353 16.1481 17.399 16.3233 17.399C16.4985 17.399 16.9008 17.6586 17.1409 17.8078M14.805 17.7689C15.0754 17.7351 15.248 17.6948 15.4473 17.7197C15.5924 17.7378 15.7553 17.9108 15.9729 17.9052C16.1579 17.9004 16.2881 17.7727 16.4206 17.7498C16.6835 17.7043 16.895 17.7561 17.1409 17.8078M17.1409 17.8078L17.3939 17.5937M15.2527 18.2821C15.4084 18.4184 15.7393 18.5547 15.9729 18.5547C16.2065 18.5547 16.5569 18.4379 16.6737 18.3405" stroke="#1E1E1E" stroke-width="0.1" stroke-linecap="round" stroke-linejoin="round"/>
<path d="M19.2896 15.9018C20.0224 16.065 20.2805 16.7908 20.1038 17.37C19.8799 18.104 18.8214 18.3895 18.3532 18.0429C17.885 17.6962 17.885 16.5747 18.8214 16.4932C19.3303 16.4488 19.8511 17.1364 19.4321 17.5943C19.0972 17.9602 18.7064 17.9231 18.4957 17.7166C18.2837 17.5088 18.2826 17.1124 18.4957 16.9825C18.9639 16.6971 19.1669 17.1872 19.0453 17.37C18.9232 17.5535 18.5975 17.5127 18.6585 17.2476M18.17 16.5339C18.9028 15.9426 19.5746 16.2689 19.7985 16.8806" stroke="#1E1E1E" stroke-width="0.1" stroke-linecap="round" stroke-linejoin="round"/>
<path d="M12.4904 15.7259C11.7576 15.889 11.4995 16.6149 11.6761 17.194C11.9001 17.9281 12.9586 18.2135 13.4268 17.8669C13.895 17.5203 13.895 16.3988 12.9586 16.3172C12.4497 16.2729 11.9289 16.9604 12.3479 17.4183C12.6827 17.7842 13.0736 17.7472 13.2843 17.5406C13.4963 17.3329 13.4973 16.9365 13.2843 16.8066C12.8161 16.5211 12.6131 17.0113 12.7347 17.194C12.8568 17.3775 13.1825 17.3367 13.1214 17.0717M13.61 16.358C12.8772 15.7666 12.2054 16.0929 11.9815 16.7046" stroke="#1E1E1E" stroke-width="0.1" stroke-linecap="round" stroke-linejoin="round"/>
</svg>
